<svg width="19" height="18" viewBox="0 0 19 18" fill="none" xmlns="http://www.w3.org/2000/svg">
<path fill-rule="evenodd" clip-rule="evenodd" d="M5.77783 1.5H3.77783C2.9494 1.5 2.27783 2.17157 2.27783 3V5C2.27783 5.82843 2.9494 6.5 3.77783 6.5H5.77783C6.60626 6.5 7.27783 5.82843 7.27783 5V3C7.27783 2.17157 6.60626 1.5 5.77783 1.5ZM3.77783 0C2.12098 0 0.777832 1.34315 0.777832 3V5C0.777832 6.65685 2.12098 8 3.77783 8H5.77783C7.43469 8 8.77783 6.65685 8.77783 5V3C8.77783 1.34315 7.43469 0 5.77783 0H3.77783Z" fill="white"/>
<path fill-rule="evenodd" clip-rule="evenodd" d="M5.77783 11.5H3.77783C2.9494 11.5 2.27783 12.1716 2.27783 13V15C2.27783 15.8284 2.9494 16.5 3.77783 16.5H5.77783C6.60626 16.5 7.27783 15.8284 7.27783 15V13C7.27783 12.1716 6.60626 11.5 5.77783 11.5ZM3.77783 10C2.12098 10 0.777832 11.3431 0.777832 13V15C0.777832 16.6569 2.12098 18 3.77783 18H5.77783C7.43469 18 8.77783 16.6569 8.77783 15V13C8.77783 11.3431 7.43469 10 5.77783 10H3.77783Z" fill="white"/>
<path fill-rule="evenodd" clip-rule="evenodd" d="M15.7778 1.5H13.7778C12.9494 1.5 12.2778 2.17157 12.2778 3V5C12.2778 5.82843 12.9494 6.5 13.7778 6.5H15.7778C16.6063 6.5 17.2778 5.82843 17.2778 5V3C17.2778 2.17157 16.6063 1.5 15.7778 1.5ZM13.7778 0C12.121 0 10.7778 1.34315 10.7778 3V5C10.7778 6.65685 12.121 8 13.7778 8H15.7778C17.4347 8 18.7778 6.65685 18.7778 5V3C18.7778 1.34315 17.4347 0 15.7778 0H13.7778Z" fill="white"/>
<path fill-rule="evenodd" clip-rule="evenodd" d="M15.7778 11.5H13.7778C12.9494 11.5 12.2778 12.1716 12.2778 13V15C12.2778 15.8284 12.9494 16.5 13.7778 16.5H15.7778C16.6063 16.5 17.2778 15.8284 17.2778 15V13C17.2778 12.1716 16.6063 11.5 15.7778 11.5ZM13.7778 10C12.121 10 10.7778 11.3431 10.7778 13V15C10.7778 16.6569 12.121 18 13.7778 18H15.7778C17.4347 18 18.7778 16.6569 18.7778 15V13C18.7778 11.3431 17.4347 10 15.7778 10H13.7778Z" fill="white"/>
</svg>
