<svg width="19" height="19" viewBox="0 0 19 19" fill="none" xmlns="http://www.w3.org/2000/svg">
<path d="M16.4423 15.1954V15.4202L16.6659 15.444C16.9622 15.4755 17.2359 15.6172 17.4326 15.8411C17.6293 16.065 17.7346 16.3547 17.7276 16.6526C17.7207 16.9506 17.6019 17.235 17.395 17.4495C17.1896 17.6622 16.9124 17.7907 16.6175 17.8098H2.37479C2.05985 17.8098 1.7578 17.6847 1.5351 17.462C1.31241 17.2393 1.18729 16.9373 1.18729 16.6223C1.18729 16.3074 1.3124 16.0054 1.5351 15.7827C1.7578 15.56 2.05985 15.4348 2.37479 15.4348H2.48979H2.73979V15.1848V7.93026V7.68026H2.48979L2.36521 7.68026L2.3637 7.68027C2.10132 7.68185 1.84595 7.59557 1.6383 7.43518C1.43064 7.27478 1.28265 7.0495 1.21789 6.79523L1.21797 6.79521L1.21631 6.78933C1.14594 6.53877 1.16211 6.27181 1.26221 6.03158C1.3623 5.79135 1.54048 5.59189 1.76794 5.46543L1.76795 5.46546L1.77143 5.46345L8.9097 1.34338C9.09003 1.24234 9.29328 1.18927 9.5 1.18927C9.70673 1.18927 9.90998 1.24234 10.0903 1.34338C10.0907 1.3436 10.0911 1.34383 10.0915 1.34405L17.2286 5.46345L17.2286 5.46348L17.2321 5.46543C17.4595 5.59189 17.6377 5.79135 17.7378 6.03158C17.8379 6.27181 17.8541 6.53877 17.7837 6.78933L17.7836 6.78931L17.7822 6.79488C17.7191 7.04131 17.5779 7.2607 17.3799 7.4203C17.1818 7.5799 16.9374 7.67115 16.6832 7.68043L16.4423 7.68922V7.93026V15.1954ZM2.36202 7.22191L2.36202 7.22193H2.36521H16.6367C16.7994 7.22531 16.9585 7.17419 17.0888 7.07664C17.2201 6.97839 17.3144 6.83877 17.3565 6.68033C17.3987 6.52189 17.3862 6.35387 17.3211 6.2034C17.2565 6.0541 17.1439 5.93073 17.0011 5.85284L9.86149 1.74527C9.75225 1.67993 9.62733 1.64542 9.5 1.64542C9.37267 1.64542 9.24773 1.67994 9.13848 1.74529L2.00089 5.85443L2.00089 5.85442L1.99867 5.85573C1.86067 5.93708 1.75307 6.06135 1.69229 6.20957C1.63152 6.3578 1.62091 6.52183 1.66209 6.67665C1.70326 6.83147 1.79396 6.96856 1.92034 7.06701C2.04671 7.16546 2.20183 7.21986 2.36202 7.22191ZM15.984 7.93026V7.68026H15.734H12.2792H12.0292V7.93026V15.1848V15.4348H12.2792H15.734H15.984V15.1848V7.93026ZM11.566 7.93026V7.68026H11.316H7.85646H7.60646V7.93026V15.1848V15.4348H7.85646H11.316H11.566V15.1848V7.93026ZM7.14813 7.93026V7.68026H6.89813H3.44813H3.19813V7.93026V15.1848V15.4348H3.44813H6.89813H7.14813V15.1848V7.93026ZM2.37479 17.3515H16.6252C16.8186 17.3515 17.0041 17.2747 17.1408 17.1379C17.2776 17.0012 17.3544 16.8157 17.3544 16.6223C17.3544 16.429 17.2776 16.2435 17.1408 16.1067C17.0041 15.97 16.8186 15.8932 16.6252 15.8932H2.37479C2.18141 15.8932 1.99594 15.97 1.8592 16.1067C1.72245 16.2435 1.64563 16.429 1.64563 16.6223C1.64563 16.8157 1.72245 17.0012 1.85919 17.1379C1.99594 17.2747 2.18141 17.3515 2.37479 17.3515Z" fill="white" stroke="white" stroke-width="0.5"/>
</svg>
