<svg width="387" height="264" viewBox="0 0 387 264" fill="none" xmlns="http://www.w3.org/2000/svg">
<path d="M342.783 26H44.2174C36.3653 26 30 32.2557 30 39.9726V216.027C30 223.744 36.3653 230 44.2174 230H342.783C350.635 230 357 223.744 357 216.027V39.9726C357 32.2557 350.635 26 342.783 26Z" fill="#1573FF"/>
<g filter="url(#filter0_d_60_31)">
<mask id="mask0_60_31" style="mask-type:alpha" maskUnits="userSpaceOnUse" x="30" y="26" width="327" height="204">
<path d="M342.783 26H44.2174C36.3653 26 30 32.2557 30 39.9726V216.027C30 223.744 36.3653 230 44.2174 230H342.783C350.635 230 357 223.744 357 216.027V39.9726C357 32.2557 350.635 26 342.783 26Z" fill="#DAEBFF"/>
</mask>
<g mask="url(#mask0_60_31)">
<path d="M75.8988 348.172C173.489 348.172 252.601 270.422 252.601 174.513C252.601 78.6032 173.489 0.853088 75.8988 0.853088C-21.6909 0.853088 -100.803 78.6032 -100.803 174.513C-100.803 270.422 -21.6909 348.172 75.8988 348.172Z" fill="#1C3879"/>
<path d="M348.878 153.749C401.599 153.749 444.338 111.746 444.338 59.9326C444.338 8.11934 401.599 -33.8836 348.878 -33.8836C296.157 -33.8836 253.418 8.11934 253.418 59.9326C253.418 111.746 296.157 153.749 348.878 153.749Z" fill="#4EB4FF"/>
</g>
</g>
<path d="M56.1175 199.341V180.541H57.3975V199.341H56.1175ZM56.6175 197.101C55.5508 197.101 54.5308 196.941 53.5575 196.621C52.5842 196.288 51.8175 195.861 51.2575 195.341L51.9975 193.781C52.5308 194.248 53.2108 194.635 54.0375 194.941C54.8642 195.248 55.7242 195.401 56.6175 195.401C57.4308 195.401 58.0908 195.308 58.5975 195.121C59.1042 194.935 59.4775 194.681 59.7175 194.361C59.9575 194.028 60.0775 193.655 60.0775 193.241C60.0775 192.761 59.9175 192.375 59.5975 192.081C59.2908 191.788 58.8842 191.555 58.3775 191.381C57.8842 191.195 57.3375 191.035 56.7375 190.901C56.1375 190.768 55.5308 190.615 54.9175 190.441C54.3175 190.255 53.7642 190.021 53.2575 189.741C52.7642 189.461 52.3642 189.088 52.0575 188.621C51.7508 188.141 51.5975 187.528 51.5975 186.781C51.5975 186.061 51.7842 185.401 52.1575 184.801C52.5442 184.188 53.1308 183.701 53.9175 183.341C54.7175 182.968 55.7308 182.781 56.9575 182.781C57.7708 182.781 58.5775 182.888 59.3775 183.101C60.1775 183.315 60.8708 183.621 61.4575 184.021L60.7975 185.621C60.1975 185.221 59.5642 184.935 58.8975 184.761C58.2308 184.575 57.5842 184.481 56.9575 184.481C56.1708 184.481 55.5242 184.581 55.0175 184.781C54.5108 184.981 54.1375 185.248 53.8975 185.581C53.6708 185.915 53.5575 186.288 53.5575 186.701C53.5575 187.195 53.7108 187.588 54.0175 187.881C54.3375 188.175 54.7442 188.408 55.2375 188.581C55.7442 188.755 56.2975 188.915 56.8975 189.061C57.4975 189.195 58.0975 189.348 58.6975 189.521C59.3108 189.695 59.8642 189.921 60.3575 190.201C60.8642 190.481 61.2708 190.855 61.5775 191.321C61.8842 191.788 62.0375 192.388 62.0375 193.121C62.0375 193.828 61.8442 194.488 61.4575 195.101C61.0708 195.701 60.4708 196.188 59.6575 196.561C58.8575 196.921 57.8442 197.101 56.6175 197.101ZM67.9627 197.101C66.976 197.101 66.016 196.948 65.0827 196.641C64.1627 196.335 63.4093 195.921 62.8227 195.401L63.7427 193.821C64.2093 194.261 64.816 194.621 65.5627 194.901C66.3093 195.181 67.1093 195.321 67.9627 195.321C69.0027 195.321 69.8093 195.101 70.3827 194.661C70.9693 194.208 71.2627 193.601 71.2627 192.841C71.2627 192.108 70.9827 191.521 70.4227 191.081C69.876 190.628 69.0027 190.401 67.8027 190.401H66.6827V189.001L70.8427 183.881L71.1227 184.681H63.4627V182.941H72.7027V184.301L68.5627 189.401L67.5227 188.781H68.1827C69.876 188.781 71.1427 189.161 71.9827 189.921C72.836 190.681 73.2627 191.648 73.2627 192.821C73.2627 193.608 73.0693 194.328 72.6827 194.981C72.296 195.635 71.7093 196.155 70.9227 196.541C70.1493 196.915 69.1627 197.101 67.9627 197.101ZM75.228 199.901L76.228 195.861L76.488 197.021C76.1013 197.021 75.7746 196.901 75.508 196.661C75.2546 196.421 75.128 196.095 75.128 195.681C75.128 195.281 75.2546 194.955 75.508 194.701C75.7746 194.448 76.0946 194.321 76.468 194.321C76.8546 194.321 77.168 194.455 77.408 194.721C77.648 194.975 77.768 195.295 77.768 195.681C77.768 195.815 77.7546 195.948 77.728 196.081C77.7146 196.201 77.6813 196.348 77.628 196.521C77.588 196.681 77.5213 196.881 77.428 197.121L76.488 199.901H75.228ZM79.2834 193.501V192.101L86.4434 182.941H88.6034L81.5034 192.101L80.4834 191.781H91.6634V193.501H79.2834ZM87.0634 196.941V193.501L87.1234 191.781V188.741H89.0034V196.941H87.0634ZM98.7423 197.101C97.5023 197.101 96.4423 196.828 95.5623 196.281C94.6823 195.735 94.009 194.948 93.5423 193.921C93.089 192.881 92.8623 191.615 92.8623 190.121C92.8623 188.535 93.1423 187.195 93.7023 186.101C94.2623 185.008 95.0423 184.181 96.0423 183.621C97.0423 183.061 98.189 182.781 99.4823 182.781C100.149 182.781 100.782 182.848 101.382 182.981C101.996 183.115 102.522 183.321 102.962 183.601L102.202 185.161C101.842 184.908 101.429 184.735 100.962 184.641C100.509 184.548 100.029 184.501 99.5223 184.501C98.0957 184.501 96.9623 184.948 96.1223 185.841C95.2823 186.721 94.8623 188.035 94.8623 189.781C94.8623 190.061 94.8757 190.395 94.9023 190.781C94.929 191.168 94.9957 191.548 95.1023 191.921L94.4223 191.241C94.6223 190.628 94.9357 190.115 95.3623 189.701C95.8023 189.275 96.3223 188.961 96.9223 188.761C97.5357 188.548 98.1957 188.441 98.9023 188.441C99.8357 188.441 100.662 188.615 101.382 188.961C102.102 189.308 102.669 189.801 103.082 190.441C103.496 191.068 103.702 191.815 103.702 192.681C103.702 193.575 103.482 194.355 103.042 195.021C102.602 195.688 102.009 196.201 101.262 196.561C100.516 196.921 99.6757 197.101 98.7423 197.101ZM98.6623 195.481C99.2757 195.481 99.809 195.368 100.262 195.141C100.729 194.915 101.096 194.601 101.362 194.201C101.629 193.788 101.762 193.308 101.762 192.761C101.762 191.935 101.476 191.281 100.902 190.801C100.329 190.308 99.549 190.061 98.5623 190.061C97.9223 190.061 97.3623 190.181 96.8823 190.421C96.4023 190.661 96.0223 190.988 95.7423 191.401C95.4757 191.801 95.3423 192.261 95.3423 192.781C95.3423 193.261 95.469 193.708 95.7223 194.121C95.9757 194.521 96.349 194.848 96.8423 195.101C97.3357 195.355 97.9423 195.481 98.6623 195.481ZM109.746 182.781C111.013 182.781 112.079 183.055 112.946 183.601C113.826 184.148 114.493 184.941 114.946 185.981C115.399 187.008 115.626 188.268 115.626 189.761C115.626 191.348 115.346 192.688 114.786 193.781C114.226 194.875 113.453 195.701 112.466 196.261C111.479 196.821 110.326 197.101 109.006 197.101C108.353 197.101 107.719 197.035 107.106 196.901C106.506 196.768 105.979 196.561 105.526 196.281L106.286 194.721C106.659 194.961 107.073 195.135 107.526 195.241C107.993 195.335 108.479 195.381 108.986 195.381C110.399 195.381 111.526 194.941 112.366 194.061C113.206 193.168 113.626 191.848 113.626 190.101C113.626 189.821 113.613 189.488 113.586 189.101C113.559 188.715 113.499 188.335 113.406 187.961L114.066 188.641C113.879 189.255 113.566 189.775 113.126 190.201C112.699 190.615 112.179 190.928 111.566 191.141C110.966 191.341 110.306 191.441 109.586 191.441C108.666 191.441 107.846 191.268 107.126 190.921C106.406 190.575 105.839 190.088 105.426 189.461C105.013 188.821 104.806 188.068 104.806 187.201C104.806 186.295 105.019 185.515 105.446 184.861C105.886 184.195 106.479 183.681 107.226 183.321C107.986 182.961 108.826 182.781 109.746 182.781ZM109.826 184.401C109.226 184.401 108.693 184.515 108.226 184.741C107.759 184.968 107.393 185.281 107.126 185.681C106.873 186.081 106.746 186.561 106.746 187.121C106.746 187.948 107.033 188.608 107.606 189.101C108.179 189.581 108.953 189.821 109.926 189.821C110.566 189.821 111.126 189.701 111.606 189.461C112.099 189.221 112.479 188.895 112.746 188.481C113.026 188.068 113.166 187.608 113.166 187.101C113.166 186.608 113.039 186.161 112.786 185.761C112.533 185.361 112.159 185.035 111.666 184.781C111.173 184.528 110.559 184.401 109.826 184.401ZM118.635 197.061C118.262 197.061 117.942 196.935 117.675 196.681C117.409 196.415 117.275 196.081 117.275 195.681C117.275 195.281 117.409 194.955 117.675 194.701C117.942 194.448 118.262 194.321 118.635 194.321C118.995 194.321 119.302 194.448 119.555 194.701C119.822 194.955 119.955 195.281 119.955 195.681C119.955 196.081 119.822 196.415 119.555 196.681C119.302 196.935 118.995 197.061 118.635 197.061ZM126.367 197.101C125.38 197.101 124.42 196.948 123.487 196.641C122.567 196.335 121.813 195.921 121.227 195.401L122.147 193.821C122.613 194.261 123.22 194.621 123.967 194.901C124.713 195.181 125.507 195.321 126.347 195.321C127.413 195.321 128.233 195.095 128.807 194.641C129.38 194.188 129.667 193.581 129.667 192.821C129.667 192.301 129.54 191.848 129.287 191.461C129.033 191.075 128.593 190.781 127.967 190.581C127.353 190.368 126.507 190.261 125.427 190.261H122.247L122.987 182.941H130.887V184.681H123.727L124.767 183.701L124.187 189.481L123.147 188.521H125.847C127.247 188.521 128.373 188.701 129.227 189.061C130.08 189.421 130.7 189.921 131.087 190.561C131.473 191.188 131.667 191.915 131.667 192.741C131.667 193.541 131.473 194.275 131.087 194.941C130.7 195.595 130.113 196.121 129.327 196.521C128.553 196.908 127.567 197.101 126.367 197.101ZM133.013 196.941V195.581L138.713 190.081C139.22 189.601 139.593 189.181 139.833 188.821C140.087 188.448 140.253 188.108 140.333 187.801C140.427 187.481 140.473 187.175 140.473 186.881C140.473 186.161 140.22 185.595 139.713 185.181C139.207 184.768 138.467 184.561 137.493 184.561C136.747 184.561 136.073 184.688 135.473 184.941C134.873 185.181 134.353 185.561 133.913 186.081L132.553 184.901C133.087 184.221 133.8 183.701 134.693 183.341C135.6 182.968 136.593 182.781 137.673 182.781C138.647 182.781 139.493 182.941 140.213 183.261C140.933 183.568 141.487 184.015 141.873 184.601C142.273 185.188 142.473 185.881 142.473 186.681C142.473 187.135 142.413 187.581 142.293 188.021C142.173 188.461 141.947 188.928 141.613 189.421C141.28 189.915 140.8 190.468 140.173 191.081L135.093 195.981L134.613 195.201H143.073V196.941H133.013Z" fill="white"/>
<path d="M51.2533 163.204V162.084L56.9813 154.756H58.7093L53.0293 162.084L52.2133 161.828H61.1573V163.204H51.2533ZM57.4773 165.956V163.204L57.5253 161.828V159.396H59.0293V165.956H57.4773ZM63.3024 165.956L68.0544 155.428L68.4704 156.148H61.8144L62.6144 155.364V158.148H61.0784V154.756H69.5264V155.844L64.9984 165.956H63.3024ZM74.2636 166.084C73.4743 166.084 72.7063 165.962 71.9596 165.716C71.2236 165.471 70.621 165.14 70.1516 164.724L70.8876 163.46C71.261 163.812 71.7463 164.1 72.3436 164.324C72.941 164.548 73.5756 164.66 74.2476 164.66C75.101 164.66 75.757 164.479 76.2156 164.116C76.6743 163.754 76.9036 163.268 76.9036 162.66C76.9036 162.244 76.8023 161.882 76.5996 161.572C76.397 161.263 76.045 161.028 75.5436 160.868C75.053 160.698 74.3756 160.612 73.5116 160.612H70.9676L71.5596 154.756H77.8796V156.148H72.1516L72.9836 155.364L72.5196 159.988L71.6876 159.22H73.8476C74.9676 159.22 75.869 159.364 76.5516 159.652C77.2343 159.94 77.7303 160.34 78.0396 160.852C78.349 161.354 78.5036 161.935 78.5036 162.596C78.5036 163.236 78.349 163.823 78.0396 164.356C77.7303 164.879 77.261 165.3 76.6316 165.62C76.013 165.93 75.2236 166.084 74.2636 166.084ZM84.5391 166.084C83.5471 166.084 82.6991 165.866 81.9951 165.428C81.2911 164.991 80.7525 164.362 80.3791 163.54C80.0165 162.708 79.8351 161.695 79.8351 160.5C79.8351 159.231 80.0591 158.159 80.5071 157.284C80.9551 156.41 81.5791 155.748 82.3791 155.3C83.1791 154.852 84.0965 154.628 85.1311 154.628C85.6645 154.628 86.1711 154.682 86.6511 154.788C87.1418 154.895 87.5631 155.06 87.9151 155.284L87.3071 156.532C87.0191 156.33 86.6885 156.191 86.3151 156.116C85.9525 156.042 85.5685 156.004 85.1631 156.004C84.0218 156.004 83.1151 156.362 82.4431 157.076C81.7711 157.78 81.4351 158.831 81.4351 160.228C81.4351 160.452 81.4458 160.719 81.4671 161.028C81.4885 161.338 81.5418 161.642 81.6271 161.94L81.0831 161.396C81.2431 160.906 81.4938 160.495 81.8351 160.164C82.1871 159.823 82.6031 159.572 83.0831 159.412C83.5738 159.242 84.1018 159.156 84.6671 159.156C85.4138 159.156 86.0751 159.295 86.6511 159.572C87.2271 159.85 87.6805 160.244 88.0111 160.756C88.3418 161.258 88.5071 161.855 88.5071 162.548C88.5071 163.263 88.3311 163.887 87.9791 164.42C87.6271 164.954 87.1525 165.364 86.5551 165.652C85.9578 165.94 85.2858 166.084 84.5391 166.084ZM84.4751 164.788C84.9658 164.788 85.3925 164.698 85.7551 164.516C86.1285 164.335 86.4218 164.084 86.6351 163.764C86.8485 163.434 86.9551 163.05 86.9551 162.612C86.9551 161.951 86.7258 161.428 86.2671 161.044C85.8085 160.65 85.1845 160.452 84.3951 160.452C83.8831 160.452 83.4351 160.548 83.0511 160.74C82.6671 160.932 82.3631 161.194 82.1391 161.524C81.9258 161.844 81.8191 162.212 81.8191 162.628C81.8191 163.012 81.9205 163.37 82.1231 163.7C82.3258 164.02 82.6245 164.282 83.0191 164.484C83.4138 164.687 83.8991 164.788 84.4751 164.788Z" fill="white"/>
<path d="M207.306 154.629C208.32 154.629 209.173 154.847 209.866 155.285C210.57 155.722 211.104 156.357 211.466 157.189C211.829 158.01 212.01 159.018 212.01 160.213C212.01 161.482 211.786 162.554 211.338 163.429C210.89 164.303 210.272 164.965 209.482 165.413C208.693 165.861 207.77 166.085 206.714 166.085C206.192 166.085 205.685 166.031 205.194 165.925C204.714 165.818 204.293 165.653 203.93 165.429L204.538 164.181C204.837 164.373 205.168 164.511 205.53 164.597C205.904 164.671 206.293 164.709 206.698 164.709C207.829 164.709 208.73 164.357 209.402 163.653C210.074 162.938 210.41 161.882 210.41 160.485C210.41 160.261 210.4 159.994 210.378 159.685C210.357 159.375 210.309 159.071 210.234 158.773L210.762 159.317C210.613 159.807 210.362 160.223 210.01 160.565C209.669 160.895 209.253 161.146 208.762 161.317C208.282 161.477 207.754 161.557 207.178 161.557C206.442 161.557 205.786 161.418 205.21 161.141C204.634 160.863 204.181 160.474 203.85 159.973C203.52 159.461 203.354 158.858 203.354 158.165C203.354 157.439 203.525 156.815 203.866 156.293C204.218 155.759 204.693 155.349 205.29 155.061C205.898 154.773 206.57 154.629 207.306 154.629ZM207.37 155.925C206.89 155.925 206.464 156.015 206.09 156.197C205.717 156.378 205.424 156.629 205.21 156.949C205.008 157.269 204.906 157.653 204.906 158.101C204.906 158.762 205.136 159.29 205.594 159.685C206.053 160.069 206.672 160.261 207.45 160.261C207.962 160.261 208.41 160.165 208.794 159.973C209.189 159.781 209.493 159.519 209.706 159.189C209.93 158.858 210.042 158.49 210.042 158.085C210.042 157.69 209.941 157.333 209.738 157.013C209.536 156.693 209.237 156.431 208.842 156.229C208.448 156.026 207.957 155.925 207.37 155.925ZM218.125 166.085C217.251 166.085 216.467 165.861 215.773 165.413C215.091 164.965 214.547 164.314 214.141 163.461C213.747 162.607 213.549 161.573 213.549 160.357C213.549 159.141 213.747 158.106 214.141 157.253C214.547 156.399 215.091 155.749 215.773 155.301C216.467 154.853 217.251 154.629 218.125 154.629C218.989 154.629 219.768 154.853 220.461 155.301C221.155 155.749 221.699 156.399 222.093 157.253C222.488 158.106 222.685 159.141 222.685 160.357C222.685 161.573 222.488 162.607 222.093 163.461C221.699 164.314 221.155 164.965 220.461 165.413C219.768 165.861 218.989 166.085 218.125 166.085ZM218.125 164.661C218.712 164.661 219.224 164.501 219.661 164.181C220.109 163.861 220.456 163.381 220.701 162.741C220.957 162.101 221.085 161.306 221.085 160.357C221.085 159.407 220.957 158.613 220.701 157.973C220.456 157.333 220.109 156.853 219.661 156.533C219.224 156.213 218.712 156.053 218.125 156.053C217.539 156.053 217.021 156.213 216.573 156.533C216.125 156.853 215.773 157.333 215.517 157.973C215.272 158.613 215.149 159.407 215.149 160.357C215.149 161.306 215.272 162.101 215.517 162.741C215.773 163.381 216.125 163.861 216.573 164.181C217.021 164.501 217.539 164.661 218.125 164.661ZM226.109 165.957V155.397L226.797 156.149H223.581V154.757H227.693V165.957H226.109ZM234.511 166.085C233.605 166.085 232.821 165.951 232.159 165.685C231.498 165.418 230.986 165.039 230.623 164.549C230.261 164.047 230.079 163.461 230.079 162.789C230.079 162.127 230.25 161.567 230.591 161.109C230.943 160.639 231.45 160.287 232.111 160.053C232.773 159.807 233.573 159.685 234.511 159.685C235.45 159.685 236.25 159.807 236.911 160.053C237.583 160.287 238.095 160.639 238.447 161.109C238.799 161.578 238.975 162.138 238.975 162.789C238.975 163.461 238.794 164.047 238.431 164.549C238.069 165.039 237.551 165.418 236.879 165.685C236.207 165.951 235.418 166.085 234.511 166.085ZM234.511 164.789C235.407 164.789 236.106 164.607 236.607 164.245C237.119 163.871 237.375 163.37 237.375 162.741C237.375 162.122 237.119 161.637 236.607 161.285C236.106 160.922 235.407 160.741 234.511 160.741C233.626 160.741 232.933 160.922 232.431 161.285C231.93 161.637 231.679 162.122 231.679 162.741C231.679 163.37 231.93 163.871 232.431 164.245C232.933 164.607 233.626 164.789 234.511 164.789ZM234.511 160.549C233.658 160.549 232.933 160.437 232.335 160.213C231.738 159.978 231.279 159.647 230.959 159.221C230.639 158.783 230.479 158.266 230.479 157.669C230.479 157.039 230.645 156.501 230.975 156.053C231.317 155.594 231.791 155.242 232.399 154.997C233.007 154.751 233.711 154.629 234.511 154.629C235.322 154.629 236.031 154.751 236.639 154.997C237.247 155.242 237.722 155.594 238.063 156.053C238.405 156.501 238.575 157.039 238.575 157.669C238.575 158.266 238.415 158.783 238.095 159.221C237.775 159.647 237.311 159.978 236.703 160.213C236.095 160.437 235.365 160.549 234.511 160.549ZM234.511 159.525C235.29 159.525 235.898 159.365 236.335 159.045C236.783 158.725 237.007 158.287 237.007 157.733C237.007 157.167 236.778 156.725 236.319 156.405C235.861 156.085 235.258 155.925 234.511 155.925C233.765 155.925 233.167 156.085 232.719 156.405C232.282 156.725 232.063 157.167 232.063 157.733C232.063 158.287 232.277 158.725 232.703 159.045C233.141 159.365 233.743 159.525 234.511 159.525Z" fill="white"/>
<path d="M134.504 161.744C134.496 161.217 134.644 160.7 134.932 160.258C135.219 159.816 135.631 159.469 136.116 159.261C136.602 159.054 137.138 158.996 137.656 159.093C138.175 159.191 138.653 159.441 139.029 159.81C139.405 160.18 139.662 160.653 139.768 161.169C139.874 161.685 139.824 162.221 139.624 162.709C139.424 163.196 139.083 163.614 138.645 163.907C138.206 164.201 137.69 164.357 137.163 164.357C136.463 164.363 135.79 164.09 135.291 163.6C134.793 163.11 134.509 162.442 134.504 161.744ZM124.537 161.744C124.529 161.217 124.678 160.7 124.965 160.258C125.252 159.816 125.665 159.469 126.15 159.261C126.635 159.054 127.171 158.996 127.69 159.093C128.208 159.191 128.686 159.441 129.062 159.81C129.438 160.18 129.696 160.653 129.802 161.169C129.908 161.685 129.857 162.221 129.657 162.709C129.457 163.196 129.117 163.614 128.678 163.907C128.24 164.201 127.724 164.357 127.196 164.357C126.85 164.36 126.506 164.295 126.185 164.165C125.864 164.035 125.571 163.843 125.324 163.601C125.078 163.358 124.881 163.069 124.746 162.75C124.611 162.432 124.54 162.09 124.537 161.744H124.537ZM114.567 161.744C114.558 161.217 114.707 160.7 114.994 160.258C115.282 159.816 115.694 159.469 116.179 159.261C116.664 159.054 117.2 158.996 117.719 159.093C118.238 159.191 118.715 159.441 119.091 159.81C119.468 160.18 119.725 160.653 119.831 161.169C119.937 161.685 119.887 162.221 119.687 162.709C119.487 163.196 119.146 163.614 118.707 163.907C118.269 164.201 117.753 164.357 117.226 164.357C116.526 164.363 115.853 164.09 115.354 163.6C114.855 163.11 114.572 162.442 114.567 161.744ZM104.6 161.744C104.592 161.217 104.741 160.7 105.028 160.258C105.315 159.816 105.728 159.469 106.213 159.261C106.698 159.054 107.234 158.996 107.753 159.093C108.271 159.191 108.749 159.441 109.125 159.81C109.501 160.18 109.759 160.653 109.865 161.169C109.97 161.685 109.92 162.221 109.72 162.709C109.52 163.196 109.179 163.614 108.741 163.907C108.303 164.201 107.787 164.357 107.259 164.357C106.913 164.36 106.569 164.295 106.248 164.165C105.927 164.035 105.634 163.843 105.387 163.601C105.14 163.358 104.944 163.069 104.809 162.75C104.673 162.432 104.603 162.09 104.6 161.744H104.6Z" fill="white"/>
<path d="M181.03 161.74C181.022 161.213 181.171 160.696 181.458 160.254C181.745 159.812 182.158 159.465 182.643 159.258C183.128 159.051 183.664 158.992 184.182 159.09C184.701 159.188 185.179 159.437 185.555 159.807C185.931 160.176 186.188 160.649 186.294 161.166C186.4 161.682 186.35 162.218 186.15 162.705C185.95 163.193 185.609 163.61 185.171 163.904C184.733 164.197 184.217 164.354 183.689 164.354C182.989 164.359 182.316 164.087 181.817 163.597C181.319 163.107 181.035 162.439 181.03 161.74ZM171.06 161.74C171.051 161.213 171.2 160.696 171.487 160.254C171.775 159.812 172.187 159.465 172.672 159.258C173.157 159.051 173.693 158.992 174.212 159.09C174.731 159.188 175.208 159.437 175.584 159.807C175.961 160.176 176.218 160.649 176.324 161.166C176.43 161.682 176.38 162.218 176.18 162.705C175.98 163.193 175.639 163.61 175.2 163.904C174.762 164.197 174.246 164.354 173.719 164.354C173.019 164.359 172.346 164.087 171.847 163.597C171.348 163.107 171.065 162.439 171.06 161.74ZM161.093 161.74C161.085 161.213 161.234 160.696 161.521 160.254C161.808 159.812 162.22 159.465 162.706 159.258C163.191 159.051 163.727 158.992 164.245 159.09C164.764 159.188 165.242 159.437 165.618 159.807C165.994 160.176 166.251 160.649 166.357 161.166C166.463 161.682 166.413 162.218 166.213 162.705C166.013 163.193 165.672 163.61 165.234 163.904C164.795 164.197 164.28 164.354 163.752 164.354C163.052 164.359 162.379 164.087 161.88 163.597C161.382 163.107 161.098 162.439 161.093 161.74ZM151.122 161.74C151.114 161.213 151.263 160.696 151.55 160.254C151.837 159.812 152.25 159.465 152.735 159.258C153.22 159.051 153.756 158.992 154.275 159.09C154.793 159.188 155.271 159.437 155.647 159.807C156.023 160.176 156.281 160.649 156.387 161.166C156.493 161.682 156.442 162.218 156.242 162.705C156.042 163.193 155.701 163.61 155.263 163.904C154.825 164.197 154.309 164.354 153.781 164.354C153.082 164.359 152.408 164.087 151.91 163.597C151.411 163.107 151.128 162.439 151.122 161.74Z" fill="white"/>
<path d="M50.4235 131.824L54.8615 122.024H56.2475L60.6995 131.824H59.2295L55.2675 122.808H55.8275L51.8655 131.824H50.4235ZM52.3135 129.374L52.6915 128.254H58.2075L58.6135 129.374H52.3135ZM71.2474 124.334C71.8447 124.334 72.3721 124.451 72.8294 124.684C73.2867 124.918 73.6414 125.272 73.8934 125.748C74.1547 126.224 74.2854 126.826 74.2854 127.554V131.824H72.9414V127.708C72.9414 126.99 72.7734 126.448 72.4374 126.084C72.1014 125.72 71.6301 125.538 71.0234 125.538C70.5754 125.538 70.1834 125.632 69.8474 125.818C69.5114 126.005 69.2501 126.28 69.0634 126.644C68.8861 127.008 68.7974 127.461 68.7974 128.002V131.824H67.4534V127.708C67.4534 126.99 67.2854 126.448 66.9494 126.084C66.6227 125.72 66.1514 125.538 65.5354 125.538C65.0967 125.538 64.7094 125.632 64.3734 125.818C64.0374 126.005 63.7761 126.28 63.5894 126.644C63.4027 127.008 63.3094 127.461 63.3094 128.002V131.824H61.9654V124.404H63.2534V126.378L63.0434 125.874C63.2767 125.389 63.6361 125.011 64.1214 124.74C64.6067 124.47 65.1714 124.334 65.8154 124.334C66.5247 124.334 67.1361 124.512 67.6494 124.866C68.1627 125.212 68.4987 125.739 68.6574 126.448L68.1114 126.224C68.3354 125.655 68.7274 125.198 69.2874 124.852C69.8474 124.507 70.5007 124.334 71.2474 124.334ZM81.3644 131.824V130.256L81.2944 129.962V127.288C81.2944 126.719 81.1264 126.28 80.7904 125.972C80.4637 125.655 79.969 125.496 79.3064 125.496C78.8677 125.496 78.4384 125.571 78.0184 125.72C77.5984 125.86 77.2437 126.052 76.9544 126.294L76.3944 125.286C76.777 124.978 77.2344 124.745 77.7664 124.586C78.3077 124.418 78.8724 124.334 79.4604 124.334C80.4777 124.334 81.2617 124.582 81.8124 125.076C82.363 125.571 82.6384 126.327 82.6384 127.344V131.824H81.3644ZM78.9284 131.908C78.3777 131.908 77.8924 131.815 77.4724 131.628C77.0617 131.442 76.7444 131.185 76.5204 130.858C76.2964 130.522 76.1844 130.144 76.1844 129.724C76.1844 129.323 76.2777 128.959 76.4644 128.632C76.6604 128.306 76.973 128.044 77.4024 127.848C77.841 127.652 78.429 127.554 79.1664 127.554H81.5184V128.52H79.2224C78.5504 128.52 78.0977 128.632 77.8644 128.856C77.631 129.08 77.5144 129.351 77.5144 129.668C77.5144 130.032 77.659 130.326 77.9484 130.55C78.2377 130.765 78.639 130.872 79.1524 130.872C79.6564 130.872 80.095 130.76 80.4684 130.536C80.851 130.312 81.1264 129.986 81.2944 129.556L81.5604 130.48C81.383 130.919 81.0704 131.269 80.6224 131.53C80.1744 131.782 79.6097 131.908 78.9284 131.908ZM84.4116 131.824V130.956L89.1716 125.048L89.4376 125.51H84.4956V124.404H90.5156V125.286L85.7556 131.18L85.4476 130.718H90.6276V131.824H84.4116ZM95.495 131.908C94.7483 131.908 94.0856 131.745 93.507 131.418C92.9283 131.092 92.471 130.644 92.135 130.074C91.799 129.496 91.631 128.842 91.631 128.114C91.631 127.377 91.799 126.724 92.135 126.154C92.471 125.585 92.9283 125.142 93.507 124.824C94.0856 124.498 94.7483 124.334 95.495 124.334C96.2323 124.334 96.8903 124.498 97.469 124.824C98.057 125.142 98.5143 125.585 98.841 126.154C99.177 126.714 99.345 127.368 99.345 128.114C99.345 128.852 99.177 129.505 98.841 130.074C98.5143 130.644 98.057 131.092 97.469 131.418C96.8903 131.745 96.2323 131.908 95.495 131.908ZM95.495 130.732C95.971 130.732 96.3956 130.625 96.769 130.41C97.1516 130.196 97.4503 129.892 97.665 129.5C97.8796 129.099 97.987 128.637 97.987 128.114C97.987 127.582 97.8796 127.125 97.665 126.742C97.4503 126.35 97.1516 126.047 96.769 125.832C96.3956 125.618 95.971 125.51 95.495 125.51C95.019 125.51 94.5943 125.618 94.221 125.832C93.8476 126.047 93.549 126.35 93.325 126.742C93.101 127.125 92.989 127.582 92.989 128.114C92.989 128.637 93.101 129.099 93.325 129.5C93.549 129.892 93.8476 130.196 94.221 130.41C94.5943 130.625 95.019 130.732 95.495 130.732ZM105.166 124.334C105.772 124.334 106.304 124.451 106.762 124.684C107.228 124.918 107.592 125.272 107.854 125.748C108.115 126.224 108.246 126.826 108.246 127.554V131.824H106.902V127.708C106.902 126.99 106.724 126.448 106.37 126.084C106.024 125.72 105.534 125.538 104.9 125.538C104.424 125.538 104.008 125.632 103.654 125.818C103.299 126.005 103.024 126.28 102.828 126.644C102.641 127.008 102.548 127.461 102.548 128.002V131.824H101.204V124.404H102.492V126.406L102.282 125.874C102.524 125.389 102.898 125.011 103.402 124.74C103.906 124.47 104.494 124.334 105.166 124.334ZM114.689 131.824V122.024H118.511C119.369 122.024 120.102 122.16 120.709 122.43C121.315 122.701 121.782 123.093 122.109 123.606C122.435 124.12 122.599 124.731 122.599 125.44C122.599 126.15 122.435 126.761 122.109 127.274C121.782 127.778 121.315 128.17 120.709 128.45C120.102 128.721 119.369 128.856 118.511 128.856H115.459L116.089 128.198V131.824H114.689ZM116.089 128.338L115.459 127.638H118.469C119.365 127.638 120.041 127.447 120.499 127.064C120.965 126.682 121.199 126.14 121.199 125.44C121.199 124.74 120.965 124.199 120.499 123.816C120.041 123.434 119.365 123.242 118.469 123.242H115.459L116.089 122.542V128.338ZM124.596 131.824V121.436H125.94V131.824H124.596ZM133.112 131.824V130.256L133.042 129.962V127.288C133.042 126.719 132.874 126.28 132.538 125.972C132.212 125.655 131.717 125.496 131.054 125.496C130.616 125.496 130.186 125.571 129.766 125.72C129.346 125.86 128.992 126.052 128.702 126.294L128.142 125.286C128.525 124.978 128.982 124.745 129.514 124.586C130.056 124.418 130.62 124.334 131.208 124.334C132.226 124.334 133.01 124.582 133.56 125.076C134.111 125.571 134.386 126.327 134.386 127.344V131.824H133.112ZM130.676 131.908C130.126 131.908 129.64 131.815 129.22 131.628C128.81 131.442 128.492 131.185 128.268 130.858C128.044 130.522 127.932 130.144 127.932 129.724C127.932 129.323 128.026 128.959 128.212 128.632C128.408 128.306 128.721 128.044 129.15 127.848C129.589 127.652 130.177 127.554 130.914 127.554H133.266V128.52H130.97C130.298 128.52 129.846 128.632 129.612 128.856C129.379 129.08 129.262 129.351 129.262 129.668C129.262 130.032 129.407 130.326 129.696 130.55C129.986 130.765 130.387 130.872 130.9 130.872C131.404 130.872 131.843 130.76 132.216 130.536C132.599 130.312 132.874 129.986 133.042 129.556L133.308 130.48C133.131 130.919 132.818 131.269 132.37 131.53C131.922 131.782 131.358 131.908 130.676 131.908ZM139.422 131.908C138.675 131.908 138.096 131.708 137.686 131.306C137.275 130.905 137.07 130.331 137.07 129.584V122.78H138.414V129.528C138.414 129.93 138.512 130.238 138.708 130.452C138.913 130.667 139.202 130.774 139.576 130.774C139.996 130.774 140.346 130.658 140.626 130.424L141.046 131.39C140.84 131.568 140.593 131.698 140.304 131.782C140.024 131.866 139.73 131.908 139.422 131.908ZM135.81 125.51V124.404H140.542V125.51H135.81ZM142.67 131.824V124.404H144.014V131.824H142.67ZM143.342 122.976C143.081 122.976 142.862 122.892 142.684 122.724C142.516 122.556 142.432 122.351 142.432 122.108C142.432 121.856 142.516 121.646 142.684 121.478C142.862 121.31 143.081 121.226 143.342 121.226C143.604 121.226 143.818 121.31 143.986 121.478C144.164 121.637 144.252 121.838 144.252 122.08C144.252 122.332 144.168 122.547 144 122.724C143.832 122.892 143.613 122.976 143.342 122.976ZM150.543 124.334C151.149 124.334 151.681 124.451 152.139 124.684C152.605 124.918 152.969 125.272 153.231 125.748C153.492 126.224 153.623 126.826 153.623 127.554V131.824H152.279V127.708C152.279 126.99 152.101 126.448 151.747 126.084C151.401 125.72 150.911 125.538 150.277 125.538C149.801 125.538 149.385 125.632 149.031 125.818C148.676 126.005 148.401 126.28 148.205 126.644C148.018 127.008 147.925 127.461 147.925 128.002V131.824H146.581V124.404H147.869V126.406L147.659 125.874C147.901 125.389 148.275 125.011 148.779 124.74C149.283 124.47 149.871 124.334 150.543 124.334ZM156.11 131.824V124.404H157.454V131.824H156.11ZM156.782 122.976C156.521 122.976 156.301 122.892 156.124 122.724C155.956 122.556 155.872 122.351 155.872 122.108C155.872 121.856 155.956 121.646 156.124 121.478C156.301 121.31 156.521 121.226 156.782 121.226C157.043 121.226 157.258 121.31 157.426 121.478C157.603 121.637 157.692 121.838 157.692 122.08C157.692 122.332 157.608 122.547 157.44 122.724C157.272 122.892 157.053 122.976 156.782 122.976ZM163.142 131.908C162.507 131.908 161.947 131.792 161.462 131.558C160.986 131.325 160.613 130.97 160.342 130.494C160.081 130.009 159.95 129.402 159.95 128.674V124.404H161.294V128.52C161.294 129.248 161.467 129.794 161.812 130.158C162.167 130.522 162.661 130.704 163.296 130.704C163.763 130.704 164.169 130.611 164.514 130.424C164.859 130.228 165.125 129.948 165.312 129.584C165.499 129.211 165.592 128.763 165.592 128.24V124.404H166.936V131.824H165.662V129.822L165.872 130.354C165.629 130.849 165.265 131.232 164.78 131.502C164.295 131.773 163.749 131.908 163.142 131.908ZM178.777 124.334C179.374 124.334 179.901 124.451 180.359 124.684C180.816 124.918 181.171 125.272 181.423 125.748C181.684 126.224 181.815 126.826 181.815 127.554V131.824H180.471V127.708C180.471 126.99 180.303 126.448 179.967 126.084C179.631 125.72 179.159 125.538 178.553 125.538C178.105 125.538 177.713 125.632 177.377 125.818C177.041 126.005 176.779 126.28 176.593 126.644C176.415 127.008 176.327 127.461 176.327 128.002V131.824H174.983V127.708C174.983 126.99 174.815 126.448 174.479 126.084C174.152 125.72 173.681 125.538 173.065 125.538C172.626 125.538 172.239 125.632 171.903 125.818C171.567 126.005 171.305 126.28 171.119 126.644C170.932 127.008 170.839 127.461 170.839 128.002V131.824H169.495V124.404H170.783V126.378L170.573 125.874C170.806 125.389 171.165 125.011 171.651 124.74C172.136 124.47 172.701 124.334 173.345 124.334C174.054 124.334 174.665 124.512 175.179 124.866C175.692 125.212 176.028 125.739 176.187 126.448L175.641 126.224C175.865 125.655 176.257 125.198 176.817 124.852C177.377 124.507 178.03 124.334 178.777 124.334Z" fill="white"/>
<path d="M50.4135 70.4226L58.0215 53.6226H60.3975L68.0295 70.4226H65.5095L58.7175 54.9666H59.6775L52.8855 70.4226H50.4135ZM53.6535 66.2226L54.3015 64.3026H63.7575L64.4535 66.2226H53.6535ZM75.5304 70.5666C74.2504 70.5666 73.1144 70.2866 72.1224 69.7266C71.1304 69.1666 70.3464 68.3986 69.7704 67.4226C69.1944 66.4306 68.9064 65.3106 68.9064 64.0626C68.9064 62.7986 69.1944 61.6786 69.7704 60.7026C70.3464 59.7266 71.1304 58.9666 72.1224 58.4226C73.1144 57.8626 74.2504 57.5826 75.5304 57.5826C76.7944 57.5826 77.9224 57.8626 78.9144 58.4226C79.9224 58.9666 80.7064 59.7266 81.2664 60.7026C81.8424 61.6626 82.1304 62.7826 82.1304 64.0626C82.1304 65.3266 81.8424 66.4466 81.2664 67.4226C80.7064 68.3986 79.9224 69.1666 78.9144 69.7266C77.9224 70.2866 76.7944 70.5666 75.5304 70.5666ZM75.5304 68.5506C76.3464 68.5506 77.0744 68.3666 77.7144 67.9986C78.3704 67.6306 78.8824 67.1106 79.2504 66.4386C79.6184 65.7506 79.8024 64.9586 79.8024 64.0626C79.8024 63.1506 79.6184 62.3666 79.2504 61.7106C78.8824 61.0386 78.3704 60.5186 77.7144 60.1506C77.0744 59.7826 76.3464 59.5986 75.5304 59.5986C74.7144 59.5986 73.9864 59.7826 73.3464 60.1506C72.7064 60.5186 72.1944 61.0386 71.8104 61.7106C71.4264 62.3666 71.2344 63.1506 71.2344 64.0626C71.2344 64.9586 71.4264 65.7506 71.8104 66.4386C72.1944 67.1106 72.7064 67.6306 73.3464 67.9986C73.9864 68.3666 74.7144 68.5506 75.5304 68.5506ZM90.6688 70.5666C89.5808 70.5666 88.6208 70.3666 87.7888 69.9666C86.9728 69.5666 86.3328 68.9586 85.8688 68.1426C85.4208 67.3106 85.1968 66.2706 85.1968 65.0226V57.7026H87.5008V64.7586C87.5008 66.0066 87.7968 66.9426 88.3888 67.5666C88.9968 68.1906 89.8448 68.5026 90.9328 68.5026C91.7328 68.5026 92.4288 68.3426 93.0208 68.0226C93.6128 67.6866 94.0688 67.2066 94.3888 66.5826C94.7088 65.9426 94.8688 65.1746 94.8688 64.2786V57.7026H97.1728V70.4226H94.9888V66.9906L95.3488 67.9026C94.9328 68.7506 94.3088 69.4066 93.4768 69.8706C92.6448 70.3346 91.7088 70.5666 90.6688 70.5666ZM101.559 70.4226V57.7026H103.863V70.4226H101.559ZM102.711 55.2546C102.263 55.2546 101.887 55.1106 101.583 54.8226C101.295 54.5346 101.151 54.1826 101.151 53.7666C101.151 53.3346 101.295 52.9746 101.583 52.6866C101.887 52.3986 102.263 52.2546 102.711 52.2546C103.159 52.2546 103.527 52.3986 103.815 52.6866C104.119 52.9586 104.271 53.3026 104.271 53.7186C104.271 54.1506 104.127 54.5186 103.839 54.8226C103.551 55.1106 103.175 55.2546 102.711 55.2546ZM115.054 57.5826C116.094 57.5826 117.006 57.7826 117.79 58.1826C118.59 58.5826 119.214 59.1906 119.662 60.0066C120.11 60.8226 120.334 61.8546 120.334 63.1026V70.4226H118.03V63.3666C118.03 62.1346 117.726 61.2066 117.118 60.5826C116.526 59.9586 115.686 59.6466 114.598 59.6466C113.782 59.6466 113.07 59.8066 112.462 60.1266C111.854 60.4466 111.382 60.9186 111.046 61.5426C110.726 62.1666 110.566 62.9426 110.566 63.8706V70.4226H108.262V57.7026H110.47V61.1346L110.11 60.2226C110.526 59.3906 111.166 58.7426 112.03 58.2786C112.894 57.8146 113.902 57.5826 115.054 57.5826ZM132.494 70.4226V67.7346L132.374 67.2306V62.6466C132.374 61.6706 132.086 60.9186 131.51 60.3906C130.95 59.8466 130.102 59.5746 128.966 59.5746C128.214 59.5746 127.478 59.7026 126.758 59.9586C126.038 60.1986 125.43 60.5266 124.934 60.9426L123.974 59.2146C124.63 58.6866 125.414 58.2866 126.326 58.0146C127.254 57.7266 128.222 57.5826 129.23 57.5826C130.974 57.5826 132.318 58.0066 133.262 58.8546C134.206 59.7026 134.678 60.9986 134.678 62.7426V70.4226H132.494ZM128.318 70.5666C127.374 70.5666 126.542 70.4066 125.822 70.0866C125.118 69.7666 124.574 69.3266 124.19 68.7666C123.806 68.1906 123.614 67.5426 123.614 66.8226C123.614 66.1346 123.774 65.5106 124.094 64.9506C124.43 64.3906 124.966 63.9426 125.702 63.6066C126.454 63.2706 127.462 63.1026 128.726 63.1026H132.758V64.7586H128.822C127.67 64.7586 126.894 64.9506 126.494 65.3346C126.094 65.7186 125.894 66.1826 125.894 66.7266C125.894 67.3506 126.142 67.8546 126.638 68.2386C127.134 68.6066 127.822 68.7906 128.702 68.7906C129.566 68.7906 130.318 68.5986 130.958 68.2146C131.614 67.8306 132.086 67.2706 132.374 66.5346L132.83 68.1186C132.526 68.8706 131.99 69.4706 131.222 69.9186C130.454 70.3506 129.486 70.5666 128.318 70.5666ZM150.619 70.6146C149.339 70.6146 148.115 70.4226 146.947 70.0386C145.779 69.6386 144.859 69.1266 144.187 68.5026L145.075 66.6306C145.715 67.1906 146.531 67.6546 147.523 68.0226C148.515 68.3906 149.547 68.5746 150.619 68.5746C151.595 68.5746 152.387 68.4626 152.995 68.2386C153.603 68.0146 154.051 67.7106 154.339 67.3266C154.627 66.9266 154.771 66.4786 154.771 65.9826C154.771 65.4066 154.579 64.9426 154.195 64.5906C153.827 64.2386 153.339 63.9586 152.731 63.7506C152.139 63.5266 151.483 63.3346 150.763 63.1746C150.043 63.0146 149.315 62.8306 148.579 62.6226C147.859 62.3986 147.195 62.1186 146.587 61.7826C145.995 61.4466 145.515 60.9986 145.147 60.4386C144.779 59.8626 144.595 59.1266 144.595 58.2306C144.595 57.3666 144.819 56.5746 145.267 55.8546C145.731 55.1186 146.435 54.5346 147.379 54.1026C148.339 53.6546 149.555 53.4306 151.027 53.4306C152.003 53.4306 152.971 53.5586 153.931 53.8146C154.891 54.0706 155.723 54.4386 156.427 54.9186L155.635 56.8386C154.915 56.3586 154.155 56.0146 153.355 55.8066C152.555 55.5826 151.779 55.4706 151.027 55.4706C150.083 55.4706 149.307 55.5906 148.699 55.8306C148.091 56.0706 147.643 56.3906 147.355 56.7906C147.083 57.1906 146.947 57.6386 146.947 58.1346C146.947 58.7266 147.131 59.1986 147.499 59.5506C147.883 59.9026 148.371 60.1826 148.963 60.3906C149.571 60.5986 150.235 60.7906 150.955 60.9666C151.675 61.1266 152.395 61.3106 153.115 61.5186C153.851 61.7266 154.515 61.9986 155.107 62.3346C155.715 62.6706 156.203 63.1186 156.571 63.6786C156.939 64.2386 157.123 64.9586 157.123 65.8386C157.123 66.6866 156.891 67.4786 156.427 68.2146C155.963 68.9346 155.243 69.5186 154.267 69.9666C153.307 70.3986 152.091 70.6146 150.619 70.6146ZM168.189 70.4226V67.7346L168.069 67.2306V62.6466C168.069 61.6706 167.781 60.9186 167.205 60.3906C166.645 59.8466 165.797 59.5746 164.661 59.5746C163.909 59.5746 163.173 59.7026 162.453 59.9586C161.733 60.1986 161.125 60.5266 160.629 60.9426L159.669 59.2146C160.325 58.6866 161.109 58.2866 162.021 58.0146C162.949 57.7266 163.917 57.5826 164.925 57.5826C166.669 57.5826 168.013 58.0066 168.957 58.8546C169.901 59.7026 170.373 60.9986 170.373 62.7426V70.4226H168.189ZM164.013 70.5666C163.069 70.5666 162.237 70.4066 161.517 70.0866C160.813 69.7666 160.269 69.3266 159.885 68.7666C159.501 68.1906 159.309 67.5426 159.309 66.8226C159.309 66.1346 159.469 65.5106 159.789 64.9506C160.125 64.3906 160.661 63.9426 161.397 63.6066C162.149 63.2706 163.157 63.1026 164.421 63.1026H168.453V64.7586H164.517C163.365 64.7586 162.589 64.9506 162.189 65.3346C161.789 65.7186 161.589 66.1826 161.589 66.7266C161.589 67.3506 161.837 67.8546 162.333 68.2386C162.829 68.6066 163.517 68.7906 164.397 68.7906C165.261 68.7906 166.013 68.5986 166.653 68.2146C167.309 67.8306 167.781 67.2706 168.069 66.5346L168.525 68.1186C168.221 68.8706 167.685 69.4706 166.917 69.9186C166.149 70.3506 165.181 70.5666 164.013 70.5666ZM174.637 70.4226V57.7026H176.845V61.1586L176.629 60.2946C176.981 59.4146 177.573 58.7426 178.405 58.2786C179.237 57.8146 180.261 57.5826 181.477 57.5826V59.8146C181.381 59.7986 181.285 59.7906 181.189 59.7906C181.109 59.7906 181.029 59.7906 180.949 59.7906C179.717 59.7906 178.741 60.1586 178.021 60.8946C177.301 61.6306 176.941 62.6946 176.941 64.0866V70.4226H174.637ZM191.275 70.4226V67.7346L191.155 67.2306V62.6466C191.155 61.6706 190.867 60.9186 190.291 60.3906C189.731 59.8466 188.883 59.5746 187.747 59.5746C186.995 59.5746 186.259 59.7026 185.539 59.9586C184.819 60.1986 184.211 60.5266 183.715 60.9426L182.755 59.2146C183.411 58.6866 184.195 58.2866 185.107 58.0146C186.035 57.7266 187.003 57.5826 188.011 57.5826C189.755 57.5826 191.099 58.0066 192.043 58.8546C192.987 59.7026 193.459 60.9986 193.459 62.7426V70.4226H191.275ZM187.099 70.5666C186.155 70.5666 185.323 70.4066 184.603 70.0866C183.899 69.7666 183.355 69.3266 182.971 68.7666C182.587 68.1906 182.395 67.5426 182.395 66.8226C182.395 66.1346 182.555 65.5106 182.875 64.9506C183.211 64.3906 183.747 63.9426 184.483 63.6066C185.235 63.2706 186.243 63.1026 187.507 63.1026H191.539V64.7586H187.603C186.451 64.7586 185.675 64.9506 185.275 65.3346C184.875 65.7186 184.675 66.1826 184.675 66.7266C184.675 67.3506 184.923 67.8546 185.419 68.2386C185.915 68.6066 186.603 68.7906 187.483 68.7906C188.347 68.7906 189.099 68.5986 189.739 68.2146C190.395 67.8306 190.867 67.2706 191.155 66.5346L191.611 68.1186C191.307 68.8706 190.771 69.4706 190.003 69.9186C189.235 70.3506 188.267 70.5666 187.099 70.5666ZM204.515 57.5826C205.555 57.5826 206.467 57.7826 207.251 58.1826C208.051 58.5826 208.675 59.1906 209.123 60.0066C209.571 60.8226 209.795 61.8546 209.795 63.1026V70.4226H207.491V63.3666C207.491 62.1346 207.187 61.2066 206.579 60.5826C205.987 59.9586 205.147 59.6466 204.059 59.6466C203.243 59.6466 202.531 59.8066 201.923 60.1266C201.315 60.4466 200.843 60.9186 200.507 61.5426C200.187 62.1666 200.027 62.9426 200.027 63.8706V70.4226H197.723V52.6146H200.027V61.1346L199.571 60.2226C199.987 59.3906 200.627 58.7426 201.491 58.2786C202.355 57.8146 203.363 57.5826 204.515 57.5826Z" fill="white"/>
<defs>
<filter id="filter0_d_60_31" x="0" y="0" width="387" height="264" filterUnits="userSpaceOnUse" color-interpolation-filters="sRGB">
<feFlood flood-opacity="0" result="BackgroundImageFix"/>
<feColorMatrix in="SourceAlpha" type="matrix" values="0 0 0 0 0 0 0 0 0 0 0 0 0 0 0 0 0 0 127 0" result="hardAlpha"/>
<feOffset dy="4"/>
<feGaussianBlur stdDeviation="15"/>
<feColorMatrix type="matrix" values="0 0 0 0 0.211765 0 0 0 0 0.160784 0 0 0 0 0.717647 0 0 0 0.07 0"/>
<feBlend mode="normal" in2="BackgroundImageFix" result="effect1_dropShadow_60_31"/>
<feBlend mode="normal" in="SourceGraphic" in2="effect1_dropShadow_60_31" result="shape"/>
</filter>
</defs>
</svg>
