<svg width="21" height="16" viewBox="0 0 21 16" fill="none" xmlns="http://www.w3.org/2000/svg">
<path d="M4.32678 10.25C3.91257 10.25 3.57678 10.5858 3.57678 11C3.57678 11.4142 3.91257 11.75 4.32678 11.75H10.3268C10.741 11.75 11.0768 11.4142 11.0768 11C11.0768 10.5858 10.741 10.25 10.3268 10.25H4.32678Z" fill="white"/>
<path fill-rule="evenodd" clip-rule="evenodd" d="M3.32678 0C1.66993 0 0.326782 1.34315 0.326782 3V13C0.326782 14.6569 1.66993 16 3.32678 16H17.3268C18.9836 16 20.3268 14.6569 20.3268 13V3C20.3268 1.34315 18.9836 0 17.3268 0H3.32678ZM17.3268 1.5H3.32678C2.49836 1.5 1.82678 2.17157 1.82678 3V4.25H18.8268V3C18.8268 2.17157 18.1552 1.5 17.3268 1.5ZM1.82678 13V5.75H18.8268V13C18.8268 13.8284 18.1552 14.5 17.3268 14.5H3.32678C2.49835 14.5 1.82678 13.8284 1.82678 13Z" fill="white"/>
</svg>
