<svg  fill="none" xmlns="http://www.w3.org/2000/svg">
<path d="M15.8552 11.7625C15.9408 11.8958 16.0646 11.9999 16.2074 12.0684C17.299 12.5925 18.0527 13.7082 18.0527 15V17C18.0527 17.4142 18.3885 17.75 18.8027 17.75C19.2169 17.75 19.5527 17.4142 19.5527 17V15C19.5527 12.3766 17.426 10.25 14.8027 10.25C14.694 10.25 14.645 10.3902 14.7272 10.4614C15.1624 10.838 15.5429 11.2763 15.8552 11.7625Z" fill="white"/>
<path fill-rule="evenodd" clip-rule="evenodd" d="M4.80273 11.75C3.00781 11.75 1.55273 13.2051 1.55273 15V17C1.55273 17.4142 1.21695 17.75 0.802734 17.75C0.388521 17.75 0.0527344 17.4142 0.0527344 17V15C0.0527344 12.3766 2.17938 10.25 4.80273 10.25H10.8027C13.4261 10.25 15.5527 12.3766 15.5527 15V17C15.5527 17.4142 15.2169 17.75 14.8027 17.75C14.3885 17.75 14.0527 17.4142 14.0527 17V15C14.0527 13.2051 12.5977 11.75 10.8027 11.75H4.80273Z" fill="white"/>
<path d="M12.6732 6.55748C12.7621 6.3884 12.9035 6.25336 13.0682 6.15651C13.8069 5.72208 14.3027 4.91894 14.3027 4C14.3027 3.08106 13.8069 2.27792 13.0682 1.84349C12.9035 1.74664 12.7621 1.6116 12.6732 1.44252C12.4246 0.970105 12.1093 0.538266 11.7398 0.159537C11.6821 0.100375 11.72 0 11.8027 0C14.0118 0 15.8027 1.79086 15.8027 4C15.8027 6.20914 14.0118 8 11.8027 8C11.72 8 11.6821 7.89963 11.7398 7.84046C12.1093 7.46173 12.4246 7.0299 12.6732 6.55748Z" fill="white"/>
<path fill-rule="evenodd" clip-rule="evenodd" d="M7.80273 6.5C9.18345 6.5 10.3027 5.38071 10.3027 4C10.3027 2.61929 9.18345 1.5 7.80273 1.5C6.42202 1.5 5.30273 2.61929 5.30273 4C5.30273 5.38071 6.42202 6.5 7.80273 6.5ZM7.80273 8C10.0119 8 11.8027 6.20914 11.8027 4C11.8027 1.79086 10.0119 0 7.80273 0C5.5936 0 3.80273 1.79086 3.80273 4C3.80273 6.20914 5.5936 8 7.80273 8Z" fill="white"/>
</svg>
