<svg width="30" height="22" viewBox="0 0 30 22" fill="none" xmlns="http://www.w3.org/2000/svg">
<path d="M6.19507 13.8367C5.5893 13.8367 5.09822 14.2621 5.09822 14.7869C5.09822 15.3118 5.5893 15.7372 6.19507 15.7372H14.9699C15.5756 15.7372 16.0667 15.3118 16.0667 14.7869C16.0667 14.2621 15.5756 13.8367 14.9699 13.8367H6.19507Z" fill="#1573FF"/>
<path fill-rule="evenodd" clip-rule="evenodd" d="M4.73261 0.849731C2.30952 0.849731 0.345215 2.55152 0.345215 4.65079V17.321C0.345215 19.4202 2.30952 21.122 4.73261 21.122H25.2071C27.6302 21.122 29.5945 19.4202 29.5945 17.321V4.65079C29.5945 2.55152 27.6302 0.849731 25.2071 0.849731H4.73261ZM25.2071 2.75026H4.73261C3.52106 2.75026 2.53891 3.60116 2.53891 4.65079V6.23456H27.4008V4.65079C27.4008 3.60115 26.4186 2.75026 25.2071 2.75026ZM2.53891 17.321V8.13509H27.4008V17.321C27.4008 18.3706 26.4186 19.2215 25.2071 19.2215H4.73261C3.52106 19.2215 2.53891 18.3706 2.53891 17.321Z" fill="#1573FF"/>
</svg>
