<svg width="14" height="14" viewBox="0 0 14 14" fill="none" xmlns="http://www.w3.org/2000/svg">
<path d="M7.00078 8.4L2.10078 13.3C1.91745 13.4833 1.68411 13.575 1.40078 13.575C1.11745 13.575 0.884114 13.4833 0.700781 13.3C0.517448 13.1167 0.425781 12.8833 0.425781 12.6C0.425781 12.3167 0.517448 12.0833 0.700781 11.9L5.60078 7L0.700781 2.1C0.517448 1.91667 0.425781 1.68333 0.425781 1.4C0.425781 1.11667 0.517448 0.883332 0.700781 0.699999C0.884114 0.516666 1.11745 0.424999 1.40078 0.424999C1.68411 0.424999 1.91745 0.516666 2.10078 0.699999L7.00078 5.6L11.9008 0.699999C12.0841 0.516666 12.3174 0.424999 12.6008 0.424999C12.8841 0.424999 13.1174 0.516666 13.3008 0.699999C13.4841 0.883332 13.5758 1.11667 13.5758 1.4C13.5758 1.68333 13.4841 1.91667 13.3008 2.1L8.40078 7L13.3008 11.9C13.4841 12.0833 13.5758 12.3167 13.5758 12.6C13.5758 12.8833 13.4841 13.1167 13.3008 13.3C13.1174 13.4833 12.8841 13.575 12.6008 13.575C12.3174 13.575 12.0841 13.4833 11.9008 13.3L7.00078 8.4Z" fill="#131313"/>
</svg>
