<svg width="17" height="18" viewBox="0 0 17 18" fill="none" xmlns="http://www.w3.org/2000/svg">
<path d="M3.3555 1.38096L3.3555 11.8571M3.3555 13.7619V16.619M14.0222 1.38096L14.0222 11.8571M14.0222 13.7619V16.619M8.68883 6.14286V16.619M8.68883 1.38096V4.2381M1.22217 12.8095C1.22217 12.5569 1.33455 12.3147 1.53459 12.1361C1.73463 11.9575 2.00594 11.8571 2.28883 11.8571H4.42217C4.70506 11.8571 4.97638 11.9575 5.17641 12.1361C5.37645 12.3147 5.48883 12.5569 5.48883 12.8095C5.48883 13.0621 5.37645 13.3044 5.17641 13.483C4.97638 13.6616 4.70506 13.7619 4.42217 13.7619H2.28883C2.00594 13.7619 1.73463 13.6616 1.53459 13.483C1.33455 13.3044 1.22217 13.0621 1.22217 12.8095V12.8095ZM11.8888 12.8095C11.8888 12.5569 12.0012 12.3147 12.2013 12.1361C12.4013 11.9575 12.6726 11.8571 12.9555 11.8571H15.0888C15.3717 11.8571 15.643 11.9575 15.8431 12.1361C16.0431 12.3147 16.1555 12.5569 16.1555 12.8095C16.1555 13.0621 16.0431 13.3044 15.8431 13.483C15.643 13.6616 15.3717 13.7619 15.0888 13.7619H12.9555C12.6726 13.7619 12.4013 13.6616 12.2013 13.483C12.0012 13.3044 11.8888 13.0621 11.8888 12.8095ZM6.5555 5.19048C6.5555 4.93789 6.66788 4.69565 6.86792 4.51704C7.06796 4.33844 7.33927 4.2381 7.62217 4.2381H9.7555C10.0384 4.2381 10.3097 4.33844 10.5097 4.51704C10.7098 4.69565 10.8222 4.93789 10.8222 5.19048C10.8222 5.44307 10.7098 5.68531 10.5097 5.86391C10.3097 6.04252 10.0384 6.14286 9.7555 6.14286H7.62217C7.33927 6.14286 7.06796 6.04252 6.86792 5.86391C6.66788 5.68531 6.5555 5.44307 6.5555 5.19048V5.19048Z" stroke="white" stroke-width="1.5" stroke-linecap="round" stroke-linejoin="round"/>
</svg>
