<svg width="20" height="19" viewBox="0 0 20 19" fill="none" xmlns="http://www.w3.org/2000/svg">
<path fill-rule="evenodd" clip-rule="evenodd" d="M3.62698 18.9657C2.05297 18.9657 0.776978 17.6897 0.776978 16.1157V8.835C0.776978 8.02706 1.11989 7.25709 1.72043 6.71661L8.37043 0.731612C9.4543 -0.24387 11.0997 -0.243871 12.1835 0.731611L18.8335 6.71661C19.4341 7.25709 19.777 8.02706 19.777 8.835V16.1157C19.777 17.6897 18.501 18.9657 16.927 18.9657H3.62698ZM18.352 8.835V16.1157C18.352 16.9027 17.714 17.5407 16.927 17.5407H14.077V12.3157C14.077 10.7417 12.801 9.46572 11.227 9.46572H9.32698C7.75297 9.46572 6.47698 10.7417 6.47698 12.3157V17.5407H3.62698C2.83997 17.5407 2.20198 16.9027 2.20198 16.1157V8.835C2.20198 8.43103 2.37344 8.04605 2.6737 7.7758L9.3237 1.79081C9.86564 1.30306 10.6883 1.30306 11.2303 1.79081L17.8803 7.7758C18.1805 8.04605 18.352 8.43103 18.352 8.835ZM7.90198 17.5407V12.3157C7.90198 11.5287 8.53997 10.8907 9.32698 10.8907H11.227C12.014 10.8907 12.652 11.5287 12.652 12.3157V17.5407H7.90198Z" fill="white"/>
</svg>
