<svg width="21" height="19" viewBox="0 0 21 19" fill="none" xmlns="http://www.w3.org/2000/svg">
<path d="M11.5462 11.8818L9.23707 9.6L9.26434 9.57273C10.8462 7.80909 11.9734 5.78182 12.6371 3.63636H15.3007V1.81818H8.93707V0H7.11889V1.81818H0.755249V3.62727H10.9098C10.3007 5.38182 9.33707 7.04545 8.02798 8.5C7.18252 7.56364 6.48252 6.53636 5.92798 5.45455H4.10979C4.77343 6.93636 5.68252 8.33636 6.81889 9.6L2.19161 14.1636L3.48252 15.4545L8.02798 10.9091L10.8552 13.7364L11.5462 11.8818ZM16.6643 7.27273H14.8462L10.7552 18.1818H12.5734L13.5916 15.4545H17.9098L18.9371 18.1818H20.7552L16.6643 7.27273ZM14.2825 13.6364L15.7552 9.7L17.228 13.6364H14.2825V13.6364Z" fill="white"/>
</svg>
