<svg width="21" height="20" viewBox="0 0 21 20" fill="none" xmlns="http://www.w3.org/2000/svg">
<path d="M16.4851 11.6667V5.00001C16.4851 4.08334 15.7351 3.33334 14.8184 3.33334H3.15177C2.23511 3.33334 1.48511 4.08334 1.48511 5.00001V11.6667C1.48511 12.5833 2.23511 13.3333 3.15177 13.3333H14.8184C15.7351 13.3333 16.4851 12.5833 16.4851 11.6667ZM14.8184 11.6667H3.15177V5.00001H14.8184V11.6667ZM8.98511 5.83334C7.60177 5.83334 6.48511 6.95001 6.48511 8.33334C6.48511 9.71668 7.60177 10.8333 8.98511 10.8333C10.3684 10.8333 11.4851 9.71668 11.4851 8.33334C11.4851 6.95001 10.3684 5.83334 8.98511 5.83334ZM19.8184 5.83334V15C19.8184 15.9167 19.0684 16.6667 18.1518 16.6667H3.98511C3.98511 15.8333 3.98511 15.9167 3.98511 15H18.1518V5.83334C19.0684 5.83334 18.9851 5.83334 19.8184 5.83334Z" fill="white"/>
</svg>
