<svg width="19" height="14" viewBox="0 0 19 14" fill="none" xmlns="http://www.w3.org/2000/svg">
<path d="M15.5195 8.66668V2.00001C15.5195 1.08334 14.7695 0.333344 13.8529 0.333344H2.1862C1.26953 0.333344 0.519531 1.08334 0.519531 2.00001V8.66668C0.519531 9.58334 1.26953 10.3333 2.1862 10.3333H13.8529C14.7695 10.3333 15.5195 9.58334 15.5195 8.66668ZM13.8529 8.66668H2.1862V2.00001H13.8529V8.66668ZM8.01953 2.83334C6.6362 2.83334 5.51953 3.95001 5.51953 5.33334C5.51953 6.71668 6.6362 7.83334 8.01953 7.83334C9.40286 7.83334 10.5195 6.71668 10.5195 5.33334C10.5195 3.95001 9.40286 2.83334 8.01953 2.83334ZM18.8529 2.83334V12C18.8529 12.9167 18.1029 13.6667 17.1862 13.6667H3.01953C3.01953 12.8333 3.01953 12.9167 3.01953 12H17.1862V2.83334C18.1029 2.83334 18.0195 2.83334 18.8529 2.83334Z" fill="white"/>
</svg>
