<svg width="10" height="17" viewBox="0 0 10 17" fill="none" xmlns="http://www.w3.org/2000/svg">
<path d="M5.75243 7.07708C3.71889 6.54854 3.06493 6.00208 3.06493 5.15104C3.06493 4.17458 3.96972 3.49375 5.48368 3.49375C7.07826 3.49375 7.66951 4.25521 7.72326 5.375H9.70305C9.64034 3.83417 8.69972 2.41875 6.82743 1.96188V0H4.13993V1.935C2.40201 2.31125 1.00451 3.44 1.00451 5.16896C1.00451 7.23833 2.71555 8.26854 5.21493 8.86875C7.45451 9.40625 7.90243 10.1946 7.90243 11.0277C7.90243 11.6458 7.46347 12.6313 5.48368 12.6313C3.63826 12.6313 2.91264 11.8071 2.8141 10.75H0.843262C0.950762 12.7119 2.41993 13.8137 4.13993 14.181V16.125H6.82743V14.199C8.5743 13.8675 9.96285 12.8552 9.96285 11.0187C9.96285 8.47458 7.78597 7.60562 5.75243 7.07708Z" fill="white"/>
</svg>
