<svg width="20" height="19" viewBox="0 0 20 19" fill="none" xmlns="http://www.w3.org/2000/svg">
<path fill-rule="evenodd" clip-rule="evenodd" d="M13.0182 0.341998L1.93239 11.4278C1.76667 11.5931 1.658 11.807 1.62219 12.0383L0.84669 17.0917C0.820521 17.2624 0.834901 17.4368 0.888666 17.6009C0.94243 17.765 1.03407 17.9141 1.15617 18.0362C1.27826 18.1583 1.42739 18.25 1.59148 18.3037C1.75557 18.3575 1.93001 18.3719 2.10069 18.3457L7.15519 17.5702C7.38638 17.5347 7.60023 17.4264 7.76569 17.2611L18.8515 6.1753C19.0577 5.96902 19.1736 5.68928 19.1736 5.3976C19.1736 5.10592 19.0577 4.82618 18.8515 4.6199L14.5725 0.340898C14.3663 0.135016 14.0868 0.0193825 13.7953 0.0193825C13.5039 0.0193825 13.2244 0.135016 13.0182 0.340898V0.341998ZM3.24909 15.9444L3.74189 12.728L13.7959 2.674L16.5184 5.3976L6.46439 15.4516L3.24909 15.9444Z" fill="white"/>
<path d="M11.0869 4.7717L12.2529 3.6046L15.8191 7.1686L14.652 8.3357L11.0869 4.7717Z" fill="white"/>
</svg>
