<svg width="22" height="26" viewBox="0 0 22 26" fill="none" xmlns="http://www.w3.org/2000/svg">
<path d="M17.2917 5.41666V5.54166H17.4167H19.2683C19.6755 5.54166 20.0417 5.94197 20.0417 6.47832V6.52166C20.0417 7.05801 19.6755 7.45832 19.2683 7.45832H17.4167H17.2917V7.58332V9.76082C17.2917 10.2972 16.9255 10.6975 16.5183 10.6975H16.4908V10.6975L16.4881 10.6975C16.0754 10.7064 15.7083 10.2991 15.7083 9.76082V7.58332V7.45832H15.5833H13.7408C13.3245 7.45832 12.9583 7.05801 12.9583 6.51082V6.47933C12.9672 5.94173 13.3339 5.54166 13.7408 5.54166H15.5833H15.7083V5.41666V3.22832C15.7083 2.69285 16.0737 2.29166 16.4908 2.29166H16.5183C16.9255 2.29166 17.2917 2.69197 17.2917 3.22832V5.41666ZM15.7083 14.0833C15.7083 13.5361 16.0836 13.125 16.5 13.125C16.9164 13.125 17.2917 13.5361 17.2917 14.0833V20.5833C17.2917 21.7263 16.5039 22.625 15.5833 22.625H4.58333C3.6628 22.625 2.875 21.7263 2.875 20.5833V7.58332C2.875 6.4403 3.6628 5.54166 4.58333 5.54166H10.0833C10.4997 5.54166 10.875 5.9528 10.875 6.49999C10.875 7.04718 10.4997 7.45832 10.0833 7.45832H5.5C4.90804 7.45832 4.45833 8.02218 4.45833 8.66666V19.7383C4.45833 20.3828 4.90804 20.9467 5.5 20.9467H14.6667C15.2586 20.9467 15.7083 20.3828 15.7083 19.7383V14.0833Z" fill="white" stroke="#1C3879" stroke-width="0.25"/>
<path d="M7.33335 9.875H12.8334C13.2497 9.875 13.625 10.2861 13.625 10.8333C13.625 11.3805 13.2497 11.7917 12.8334 11.7917H7.33335C6.91698 11.7917 6.54169 11.3805 6.54169 10.8333C6.54169 10.2861 6.91698 9.875 7.33335 9.875ZM7.33335 13.125H12.8334C13.2497 13.125 13.625 13.5361 13.625 14.0833C13.625 14.6305 13.2497 15.0417 12.8334 15.0417H7.33335C6.91698 15.0417 6.54169 14.6305 6.54169 14.0833C6.54169 13.5361 6.91698 13.125 7.33335 13.125ZM7.33335 16.375H12.8334C13.2497 16.375 13.625 16.7861 13.625 17.3333C13.625 17.8805 13.2497 18.2917 12.8334 18.2917H7.33335C6.91698 18.2917 6.54169 17.8805 6.54169 17.3333C6.54169 16.7861 6.91698 16.375 7.33335 16.375Z" fill="white" stroke="#1C3879" stroke-width="0.25"/>
</svg>
