<svg width="21" height="21" viewBox="0 0 21 21" fill="none" xmlns="http://www.w3.org/2000/svg">
<path d="M18.7 20.2623L12.4507 14.0131C11.8928 14.4594 11.2511 14.8128 10.5257 15.0732C9.80038 15.3336 9.02852 15.4638 8.21017 15.4638C6.18287 15.4638 4.4673 14.7619 3.06344 13.358C1.65884 11.9534 0.956543 10.2375 0.956543 8.21017C0.956543 6.18287 1.65884 4.46692 3.06344 3.06233C4.4673 1.65847 6.18287 0.956543 8.21017 0.956543C10.2375 0.956543 11.9534 1.65847 13.358 3.06233C14.7619 4.46692 15.4638 6.18287 15.4638 8.21017C15.4638 9.02852 15.3336 9.80038 15.0732 10.5257C14.8128 11.2511 14.4594 11.8928 14.0131 12.4507L20.2902 18.7279C20.4948 18.9325 20.5971 19.1836 20.5971 19.4812C20.5971 19.7788 20.4855 20.0391 20.2623 20.2623C20.0578 20.4669 19.7974 20.5692 19.4812 20.5692C19.165 20.5692 18.9046 20.4669 18.7 20.2623ZM8.21017 13.2319C9.60509 13.2319 10.791 12.7439 11.7678 11.7678C12.7439 10.791 13.2319 9.60509 13.2319 8.21017C13.2319 6.81524 12.7439 5.62936 11.7678 4.65254C10.791 3.67647 9.60509 3.18843 8.21017 3.18843C6.81524 3.18843 5.62936 3.67647 4.65254 4.65254C3.67647 5.62936 3.18843 6.81524 3.18843 8.21017C3.18843 9.60509 3.67647 10.791 4.65254 11.7678C5.62936 12.7439 6.81524 13.2319 8.21017 13.2319Z" fill="white"/>
</svg>
