<svg width="21" height="22" viewBox="0 0 21 22" fill="none" xmlns="http://www.w3.org/2000/svg">
<path fill-rule="evenodd" clip-rule="evenodd" d="M10.485 13.5C11.8657 13.5 12.985 12.3807 12.985 11C12.985 9.61929 11.8657 8.5 10.485 8.5C9.10427 8.5 7.98499 9.61929 7.98499 11C7.98499 12.3807 9.10427 13.5 10.485 13.5ZM14.485 11C14.485 13.2091 12.6941 15 10.485 15C8.27585 15 6.48499 13.2091 6.48499 11C6.48499 8.79086 8.27585 7 10.485 7C12.6941 7 14.485 8.79086 14.485 11Z" fill="white"/>
<path fill-rule="evenodd" clip-rule="evenodd" d="M9.3897 1.84189L9.00214 3.00455C8.67536 3.9849 7.95827 4.67937 7.2071 5.09762C7.14305 5.13329 7.07963 5.16997 7.01687 5.20765C6.27821 5.65109 5.31689 5.92568 4.30327 5.71826L3.1015 5.47233C2.89065 5.42918 2.67585 5.5258 2.56824 5.71218L1.94726 6.78775C1.83965 6.97413 1.86338 7.20846 2.00617 7.36949L2.8212 8.2886C3.50525 9.06001 3.75021 10.0268 3.73656 10.8882C3.73538 10.9627 3.73538 11.0373 3.73656 11.1118C3.7502 11.9732 3.50524 12.9399 2.8212 13.7113L2.00617 14.6304C1.86338 14.7915 1.83965 15.0258 1.94726 15.2122L2.56824 16.2878C2.67585 16.4741 2.89065 16.5707 3.10149 16.5276L4.30319 16.2817C5.31682 16.0743 6.27815 16.3489 7.01682 16.7923C7.0796 16.83 7.14304 16.8667 7.20711 16.9024C7.95827 17.3206 8.67536 18.0151 9.00214 18.9955L9.3897 20.1581C9.45775 20.3623 9.64882 20.5 9.86404 20.5H11.106C11.3212 20.5 11.5123 20.3623 11.5803 20.1581L11.9679 18.9955C12.2947 18.0151 13.0118 17.3206 13.7629 16.9024C13.827 16.8667 13.8904 16.83 13.9532 16.7923C14.6919 16.3489 15.6532 16.0743 16.6668 16.2817L17.8685 16.5276C18.0793 16.5707 18.2941 16.4741 18.4017 16.2878L19.0227 15.2122C19.1303 15.0258 19.1066 14.7915 18.9638 14.6304L18.1488 13.7114C17.4648 12.94 17.2198 11.9732 17.2335 11.1118C17.2347 11.0373 17.2347 10.9627 17.2335 10.8882C17.2198 10.0267 17.4648 9.05996 18.1488 8.28855L18.9638 7.36949C19.1066 7.20846 19.1303 6.97414 19.0227 6.78775L18.4017 5.71218C18.2941 5.5258 18.0793 5.42919 17.8685 5.47233L16.6668 5.71825C15.6531 5.92567 14.6918 5.65108 13.9532 5.20765C13.8904 5.16997 13.827 5.13329 13.7629 5.09762C13.0118 4.67937 12.2947 3.9849 11.9679 3.00455L11.5803 1.84189C11.5123 1.63771 11.3212 1.5 11.106 1.5H9.86404C9.64882 1.5 9.45775 1.63771 9.3897 1.84189ZM7.57912 2.53021C7.39687 3.07694 6.9809 3.50673 6.47739 3.78709C6.39907 3.83069 6.32154 3.87554 6.24482 3.9216C5.75012 4.21857 5.16927 4.36439 4.60399 4.24871L3.40222 4.00278C2.55883 3.8302 1.69963 4.21665 1.2692 4.96218L0.648222 6.03775C0.217792 6.78328 0.312711 7.72059 0.883867 8.36469L1.69889 9.28381C2.08081 9.7145 2.24586 10.2889 2.23674 10.8644C2.23531 10.9548 2.23531 11.0452 2.23674 11.1355C2.24586 11.7111 2.0808 12.2854 1.69889 12.7161L0.883868 13.6352C0.312712 14.2793 0.217792 15.2167 0.648222 15.9622L1.2692 17.0378C1.69963 17.7833 2.55883 18.1697 3.40222 17.9971L4.60391 17.7512C5.16919 17.6356 5.75006 17.7814 6.24475 18.0784C6.3215 18.1244 6.39905 18.1693 6.47739 18.2129C6.9809 18.4933 7.39687 18.9231 7.57912 19.4698L7.96667 20.6325C8.2389 21.4491 9.00318 22 9.86404 22H11.106C11.9669 22 12.7311 21.4491 13.0034 20.6325L13.3909 19.4698C13.5732 18.9231 13.9891 18.4933 14.4927 18.2129C14.571 18.1693 14.6485 18.1244 14.7253 18.0784C15.22 17.7814 15.8008 17.6356 16.3661 17.7512L17.5678 17.9971C18.4112 18.1697 19.2704 17.7833 19.7008 17.0378L20.3218 15.9622C20.7522 15.2167 20.6573 14.2793 20.0861 13.6352L19.2711 12.7162C18.8892 12.2855 18.7242 11.7111 18.7333 11.1356C18.7347 11.0452 18.7347 10.9548 18.7333 10.8644C18.7242 10.2888 18.8892 9.71445 19.2711 9.28375L20.0861 8.36469C20.6573 7.72059 20.7522 6.78328 20.3218 6.03775L19.7008 4.96218C19.2704 4.21666 18.4112 3.8302 17.5678 4.00279L16.366 4.2487C15.8008 4.36438 15.2199 4.21857 14.7252 3.92159C14.6485 3.87554 14.571 3.83069 14.4927 3.78709C13.9891 3.50673 13.5732 3.07694 13.3909 2.53021L13.0034 1.36754C12.7311 0.550859 11.9669 0 11.106 0H9.86404C9.00318 0 8.2389 0.55086 7.96667 1.36754L7.57912 2.53021Z" fill="white"/>
</svg>
