<svg width="32" height="18" viewBox="0 0 32 18" fill="none" xmlns="http://www.w3.org/2000/svg">
<path d="M9.27344 5.39844C9.20052 4.71615 8.89323 4.1849 8.35156 3.80469C7.8151 3.42448 7.11719 3.23437 6.25781 3.23437C5.65365 3.23437 5.13542 3.32552 4.70313 3.50781C4.27083 3.6901 3.9401 3.9375 3.71094 4.25C3.48177 4.5625 3.36458 4.91927 3.35938 5.32031C3.35938 5.65365 3.4349 5.94271 3.58594 6.1875C3.74219 6.43229 3.95313 6.64062 4.21875 6.8125C4.48438 6.97917 4.77865 7.11979 5.10156 7.23437C5.42448 7.34896 5.75 7.44531 6.07813 7.52344L7.57813 7.89844C8.18229 8.03906 8.76302 8.22917 9.32031 8.46875C9.88281 8.70833 10.3854 9.01042 10.8281 9.375C11.276 9.73958 11.6302 10.1797 11.8906 10.6953C12.151 11.2109 12.2813 11.8151 12.2813 12.5078C12.2813 13.4453 12.0417 14.2708 11.5625 14.9844C11.0833 15.6927 10.3906 16.2474 9.48438 16.6484C8.58333 17.0443 7.49219 17.2422 6.21094 17.2422C4.96615 17.2422 3.88542 17.0495 2.96875 16.6641C2.05729 16.2786 1.34375 15.7161 0.828125 14.9766C0.317708 14.237 0.0416667 13.3359 2.98023e-08 12.2734H2.85156C2.89323 12.8307 3.0651 13.2943 3.36719 13.6641C3.66927 14.0339 4.0625 14.3099 4.54688 14.4922C5.03646 14.6745 5.58333 14.7656 6.1875 14.7656C6.81771 14.7656 7.36979 14.6719 7.84375 14.4844C8.32292 14.2917 8.69792 14.026 8.96875 13.6875C9.23958 13.3437 9.3776 12.9427 9.38281 12.4844C9.3776 12.0677 9.25521 11.724 9.01563 11.4531C8.77604 11.1771 8.4401 10.9479 8.00781 10.7656C7.58073 10.5781 7.08073 10.4115 6.50781 10.2656L4.6875 9.79687C3.36979 9.45833 2.32813 8.94531 1.5625 8.25781C0.802083 7.5651 0.421875 6.64583 0.421875 5.5C0.421875 4.55729 0.677083 3.73177 1.1875 3.02344C1.70313 2.3151 2.40365 1.76562 3.28906 1.375C4.17448 0.979166 5.17708 0.781249 6.29688 0.781249C7.43229 0.781249 8.42708 0.979166 9.28125 1.375C10.1406 1.76562 10.8151 2.3099 11.3047 3.00781C11.7943 3.70052 12.0469 4.4974 12.0625 5.39844H9.27344ZM17.7637 1V17H14.8652V1H17.7637ZM20.9023 17V1H31.1523V3.42969H23.8008V7.77344H30.4492V10.2031H23.8008V17H20.9023Z" fill="white"/>
</svg>
