<svg width="30" height="24" viewBox="0 0 30 24" fill="none" xmlns="http://www.w3.org/2000/svg">
<path d="M24.0585 15.5128C24.1701 15.6647 24.3238 15.7807 24.4987 15.851C26.1249 16.5051 27.2527 17.9325 27.2527 19.588V22.1221C27.2527 22.6469 27.7437 23.0723 28.3495 23.0723C28.9553 23.0723 29.4464 22.6469 29.4464 22.1221V19.588C29.4464 16.2642 26.3362 13.5697 22.4997 13.5697C22.353 13.5697 22.2922 13.7643 22.4093 13.8526C23.0466 14.3333 23.603 14.8925 24.0585 15.5128Z" fill="#FDBC64"/>
<path fill-rule="evenodd" clip-rule="evenodd" d="M7.87517 15.4702C5.25016 15.4702 3.12216 17.3138 3.12216 19.588V22.1221C3.12216 22.6469 2.63109 23.0723 2.02531 23.0723C1.41954 23.0723 0.928467 22.6469 0.928467 22.1221V19.588C0.928467 16.2642 4.03861 13.5697 7.87517 13.5697H16.65C20.4865 13.5697 23.5967 16.2642 23.5967 19.588V22.1221C23.5967 22.6469 23.1056 23.0723 22.4998 23.0723C21.894 23.0723 21.403 22.6469 21.403 22.1221V19.588C21.403 17.3138 19.275 15.4702 16.65 15.4702H7.87517Z" fill="#FDBC64"/>
<path d="M19.4014 8.86458C19.5198 8.66751 19.6976 8.51333 19.9043 8.41248C21.017 7.86939 21.7684 6.83615 21.7684 5.65084C21.7684 4.46553 21.017 3.43229 19.9043 2.8892C19.6976 2.78835 19.5198 2.63417 19.4014 2.4371C19.0388 1.83375 18.5773 1.28213 18.0355 0.798396C17.9514 0.72334 17.9996 0.582764 18.1123 0.582764C21.3431 0.582764 23.9621 2.85182 23.9621 5.65084C23.9621 8.44986 21.3431 10.7189 18.1123 10.7189C17.9996 10.7189 17.9514 10.5783 18.0355 10.5033C18.5773 10.0195 19.0388 9.46793 19.4014 8.86458Z" fill="#FDBC64"/>
<path fill-rule="evenodd" clip-rule="evenodd" d="M12.2625 8.81839C14.2817 8.81839 15.9186 7.40023 15.9186 5.65084C15.9186 3.90145 14.2817 2.48329 12.2625 2.48329C10.2432 2.48329 8.60629 3.90145 8.60629 5.65084C8.60629 7.40023 10.2432 8.81839 12.2625 8.81839ZM12.2625 10.7189C15.4932 10.7189 18.1123 8.44986 18.1123 5.65084C18.1123 2.85182 15.4932 0.582764 12.2625 0.582764C9.03167 0.582764 6.4126 2.85182 6.4126 5.65084C6.4126 8.44986 9.03167 10.7189 12.2625 10.7189Z" fill="#FDBC64"/>
</svg>
