<svg  fill="none" xmlns="http://www.w3.org/2000/svg">
<path fill-rule="evenodd" clip-rule="evenodd" d="M11.0356 4.94227C9.6492 5.18746 8.32363 5.66401 7.13556 6.35176C5.3318 7.39593 3.92595 8.88004 3.09577 10.6164C2.26559 12.3528 2.04838 14.2635 2.4716 16.1068C2.89482 17.9501 3.93946 19.6433 5.47343 20.9723C7.0074 22.3013 8.9618 23.2063 11.0895 23.573C13.2172 23.9396 15.4225 23.7514 17.4268 23.0322C19.431 22.313 21.144 21.095 22.3493 19.5323C23.1431 18.503 23.6932 17.3546 23.9762 16.1534H19.4463C19.2643 16.6002 19.0179 17.028 18.7109 17.4261C17.9865 18.3654 16.9569 19.0974 15.7522 19.5297C14.5476 19.962 13.222 20.0751 11.9432 19.8548C10.6643 19.6344 9.48962 19.0904 8.56763 18.2916C7.64563 17.4928 7.01774 16.4751 6.76336 15.3672C6.50899 14.2593 6.63954 13.1108 7.13852 12.0672C7.6375 11.0235 8.4825 10.1315 9.56665 9.50391C10.0262 9.2379 10.5199 9.02445 11.0356 8.86681V4.94227ZM11.7698 2.92006C12.5726 2.84247 13.2293 3.41702 13.2293 4.11677V9.17484C13.2293 9.8746 12.5571 10.4222 11.7936 10.6506C11.4394 10.7565 11.1003 10.9018 10.7854 11.0841C10.062 11.5029 9.49818 12.0981 9.16523 12.7945C8.83229 13.4909 8.74517 14.2571 8.91491 14.9964C9.08464 15.7357 9.5036 16.4148 10.1188 16.9477C10.734 17.4807 11.5178 17.8437 12.3711 17.9907C13.2244 18.1378 14.1089 18.0623 14.9127 17.7739C15.7165 17.4854 16.4035 16.997 16.8869 16.3702C17.0973 16.0974 17.2651 15.8036 17.3874 15.4967C17.651 14.8353 18.283 14.2529 19.0907 14.2529H24.929C25.7367 14.2529 26.3999 14.8219 26.3103 15.5174C26.0775 17.3253 25.3477 19.0654 24.1733 20.5882C22.727 22.4634 20.6713 23.925 18.2663 24.7881C15.8612 25.6512 13.2147 25.877 10.6615 25.437C8.1083 24.997 5.76302 23.9109 3.92226 22.3162C2.08149 20.7214 0.827918 18.6896 0.320052 16.4776C-0.187813 14.2656 0.0728417 11.9728 1.06906 9.88912C2.06527 7.80546 3.7523 6.02453 5.91681 4.77153C7.6745 3.75403 9.68296 3.12178 11.7698 2.92006Z" fill="#1C3879"/>
<path fill-rule="evenodd" clip-rule="evenodd" d="M26.9009 9.81833C26.7612 9.22546 26.5562 8.64408 26.2876 8.08235C25.7364 6.92944 24.9285 5.88188 23.9099 4.99948C22.8914 4.11707 21.6823 3.41711 20.3515 2.93956C19.7031 2.70689 19.0321 2.52923 18.3477 2.40821V6.33274C18.4585 6.36659 18.5682 6.40303 18.6769 6.44204C19.4768 6.72907 20.2036 7.14979 20.8157 7.68016C21.4279 8.21053 21.9135 8.84017 22.2449 9.53313C22.2899 9.62731 22.3319 9.72241 22.371 9.81833H26.9009ZM29.2351 10.4544C29.3246 11.1499 28.6615 11.7189 27.8538 11.7189H22.0155C21.2078 11.7189 20.5757 11.1365 20.3121 10.475C20.2833 10.4028 20.252 10.3312 20.2181 10.2604C19.9971 9.79805 19.6731 9.37792 19.2646 9.02403C18.8561 8.67014 18.3712 8.38942 17.8375 8.1979C17.7557 8.16857 17.6731 8.14143 17.5897 8.11648C16.8263 7.8881 16.1541 7.34054 16.1541 6.64078V1.58271C16.1541 0.882952 16.8108 0.308415 17.6135 0.386006C18.841 0.504652 20.0455 0.772623 21.191 1.1837C22.7879 1.75677 24.2389 2.59672 25.4611 3.6556C26.6833 4.71448 27.6529 5.97156 28.3143 7.35505C28.7888 8.34749 29.0981 9.39103 29.2351 10.4544Z" fill="#1C3879"/>
</svg>
