<svg width="20" height="17" viewBox="0 0 20 17" fill="none" xmlns="http://www.w3.org/2000/svg">
<path d="M2.54165 13.5V13.625H2.66665H8.34063C8.52092 14.1875 8.77332 14.7226 9.08698 15.2083H0.958313V12.9042C0.958313 11.9998 1.40609 11.1446 2.17107 10.6926L2.17146 10.6924C3.92203 9.6493 5.97169 9.04166 8.16665 9.04166C8.31217 9.04166 8.45314 9.04611 8.59273 9.05499C8.37694 9.54636 8.22222 10.0754 8.13391 10.625C6.31698 10.6309 4.53765 11.1225 2.97835 12.0544L2.97817 12.0545C2.7038 12.2191 2.54165 12.5582 2.54165 12.9042V13.5ZM17.8829 10.9956L17.8326 11.0402L17.8421 11.1068L17.8451 11.1282C17.8717 11.314 17.8958 11.4825 17.8958 11.6667C17.8958 11.8508 17.8717 12.0193 17.8451 12.2052L17.8421 12.2265L17.8326 12.2931L17.8829 12.3377L18.8515 13.1958L18.0372 14.6046L16.805 14.1882L16.7382 14.1657L16.6844 14.2111C16.4022 14.4492 16.0847 14.6345 15.7311 14.7671L15.6661 14.7915L15.6524 14.8595L15.3976 16.125H13.769L13.5142 14.8595L13.5005 14.7915L13.4355 14.7671C13.082 14.6345 12.7644 14.4492 12.4823 14.2111L12.4284 14.1657L12.3616 14.1882L11.1295 14.6046L10.3151 13.1958L11.2837 12.3377L11.3341 12.2931L11.3246 12.2265L11.3215 12.2051C11.2949 12.0193 11.2708 11.8508 11.2708 11.6667C11.2708 11.4825 11.2949 11.314 11.3215 11.1282L11.3246 11.1068L11.3341 11.0402L11.2837 10.9956L10.3151 10.1375L11.1295 8.7287L12.3616 9.14508L12.4284 9.16765L12.4823 9.1222C12.7644 8.8841 13.082 8.69879 13.4355 8.5662L13.5005 8.54185L13.5142 8.47384L13.769 7.20833H15.3976L15.6524 8.47384L15.6661 8.54185L15.7311 8.5662C16.0847 8.69879 16.4022 8.8841 16.6844 9.1222L16.7382 9.16765L16.805 9.14508L18.0372 8.7287L18.8515 10.1375L17.8829 10.9956ZM11.7083 4.33333C11.7083 6.29013 10.1234 7.875 8.16665 7.875C6.20985 7.875 4.62498 6.29013 4.62498 4.33333C4.62498 2.37653 6.20985 0.791664 8.16665 0.791664C10.1234 0.791664 11.7083 2.37653 11.7083 4.33333ZM10.125 4.33333C10.125 3.25596 9.24402 2.375 8.16665 2.375C7.08928 2.375 6.20831 3.25596 6.20831 4.33333C6.20831 5.4107 7.08928 6.29166 8.16665 6.29166C9.24402 6.29166 10.125 5.4107 10.125 4.33333ZM12.625 11.6667C12.625 12.744 13.5059 13.625 14.5833 13.625C15.6607 13.625 16.5416 12.744 16.5416 11.6667C16.5416 10.5893 15.6607 9.70833 14.5833 9.70833C13.5059 9.70833 12.625 10.5893 12.625 11.6667Z" fill="white" stroke="#1C3879" stroke-width="0.25"/>
</svg>
