<svg width="19" height="18" viewBox="0 0 19 18" fill="none" xmlns="http://www.w3.org/2000/svg">
<path d="M15.3973 11.4609C15.4807 11.5908 15.6014 11.6922 15.7406 11.759C16.8042 12.2696 17.5385 13.3567 17.5385 14.6154V16.5641C17.5385 16.9677 17.8657 17.2949 18.2693 17.2949C18.6728 17.2949 19 16.9677 19 16.5641V14.6154C19 12.0593 16.9279 9.98718 14.3718 9.98718C14.2659 9.98718 14.2182 10.1238 14.2983 10.1931C14.7224 10.5601 15.0931 10.9871 15.3973 11.4609Z" fill="white"/>
<path fill-rule="evenodd" clip-rule="evenodd" d="M4.62821 11.4487C2.8793 11.4487 1.46154 12.8665 1.46154 14.6154V16.5641C1.46154 16.9677 1.13436 17.2949 0.730769 17.2949C0.327177 17.2949 0 16.9677 0 16.5641V14.6154C0 12.0593 2.07212 9.98718 4.62821 9.98718H10.4744C13.0304 9.98718 15.1026 12.0593 15.1026 14.6154V16.5641C15.1026 16.9677 14.7754 17.2949 14.3718 17.2949C13.9682 17.2949 13.641 16.9677 13.641 16.5641V14.6154C13.641 12.8665 12.2233 11.4487 10.4744 11.4487H4.62821Z" fill="white"/>
<path d="M12.2969 6.38934C12.3835 6.22459 12.5213 6.09302 12.6817 5.99865C13.4015 5.57536 13.8846 4.79282 13.8846 3.89744C13.8846 3.00206 13.4015 2.21951 12.6817 1.79623C12.5213 1.70186 12.3835 1.57028 12.2969 1.40554C12.0547 0.94523 11.7474 0.524464 11.3874 0.155447C11.3312 0.0978012 11.3682 0 11.4487 0C13.6012 0 15.3461 1.74494 15.3461 3.89744C15.3461 6.04993 13.6012 7.79487 11.4487 7.79487C11.3682 7.79487 11.3312 7.69707 11.3874 7.63943C11.7474 7.27041 12.0547 6.84964 12.2969 6.38934Z" fill="white"/>
<path fill-rule="evenodd" clip-rule="evenodd" d="M7.55131 6.33333C8.89661 6.33333 9.9872 5.24274 9.9872 3.89744C9.9872 2.55213 8.89661 1.46154 7.55131 1.46154C6.206 1.46154 5.11541 2.55213 5.11541 3.89744C5.11541 5.24274 6.206 6.33333 7.55131 6.33333ZM7.55131 7.79487C9.7038 7.79487 11.4487 6.04993 11.4487 3.89744C11.4487 1.74494 9.7038 0 7.55131 0C5.39881 0 3.65387 1.74494 3.65387 3.89744C3.65387 6.04993 5.39881 7.79487 7.55131 7.79487Z" fill="white"/>
</svg>
