<svg width="44" height="44" viewBox="0 0 44 44" fill="none" xmlns="http://www.w3.org/2000/svg">
<path d="M26.55 14.8571C26.55 17.37 24.5129 19.4071 22 19.4071C19.4871 19.4071 17.45 17.37 17.45 14.8571C17.45 12.3442 19.4871 10.3071 22 10.3071C24.5129 10.3071 26.55 12.3442 26.55 14.8571ZM22 21.9643C25.9251 21.9643 29.1071 18.7823 29.1071 14.8571C29.1071 10.932 25.9251 7.75 22 7.75C18.0748 7.75 14.8928 10.932 14.8928 14.8571C14.8928 18.7823 18.0748 21.9643 22 21.9643Z" fill="#131313" stroke="#131313" stroke-width="0.5"/>
<path fill-rule="evenodd" clip-rule="evenodd" d="M17.8857 26.8571C14.6667 26.8571 12.0571 29.4667 12.0571 32.6857V34.0571C12.0571 34.6252 11.5966 35.0857 11.0286 35.0857C10.4605 35.0857 10 34.6252 10 34.0571V32.6857C10 28.3305 13.5306 24.8 17.8857 24.8H26.1143C30.4694 24.8 34 28.3305 34 32.6857V34.0571C34 34.6252 33.5395 35.0857 32.9714 35.0857C32.4034 35.0857 31.9429 34.6252 31.9429 34.0571V32.6857C31.9429 29.4667 29.3333 26.8571 26.1143 26.8571H17.8857Z" fill="#131313" stroke="#131313" stroke-linecap="round" stroke-linejoin="round"/>
<circle cx="22" cy="22" r="20.5" stroke="#131313" stroke-width="3"/>
</svg>
