<svg width="70" height="70" viewBox="0 0 70 70" fill="none" xmlns="http://www.w3.org/2000/svg">
<path fill-rule="evenodd" clip-rule="evenodd" d="M35 66.4999C52.3968 66.4999 66.5 52.3967 66.5 34.9999C66.5 17.6032 52.3968 3.49999 35 3.49999C17.6033 3.49999 3.5 17.6032 3.5 34.9999C3.5 52.3967 17.6033 66.4999 35 66.4999ZM35 69.9999C54.3305 69.9999 70 54.3304 70 34.9999C70 15.6695 54.3305 0 35 0C15.6695 0 0 15.6695 0 34.9999C0 54.3304 15.6695 69.9999 35 69.9999Z" fill="#908C8C"/>
<path d="M14 55.3524C14 53.5447 15.351 52.0169 17.15 51.8174C30.6512 50.3229 39.41 50.4577 52.8815 51.8507C53.5542 51.9213 54.1918 52.1863 54.7164 52.6134C55.241 53.0404 55.6298 53.611 55.8355 54.2554C56.0411 54.8998 56.0546 55.5901 55.8744 56.2421C55.6941 56.894 55.3279 57.4794 54.8205 57.9266C38.9217 71.7849 29.8358 71.5941 15.12 57.9406C14.4025 57.2756 14 56.3306 14 55.3541V55.3524Z" fill="#908C8C"/>
<path fill-rule="evenodd" clip-rule="evenodd" d="M52.7013 53.5901C39.3365 52.2076 30.7038 52.0781 17.3408 53.5569C16.9009 53.6081 16.4954 53.8198 16.2019 54.1514C15.9083 54.4831 15.7475 54.9113 15.75 55.3541C15.75 55.8546 15.9583 56.3289 16.31 56.6579C23.604 63.4234 29.1305 66.4806 34.5328 66.4999C39.9543 66.5191 45.7783 63.4864 53.6708 56.6089C53.9215 56.3857 54.102 56.0945 54.1903 55.7707C54.2787 55.4468 54.271 55.1043 54.1683 54.7847C54.0656 54.4651 53.8723 54.1823 53.6119 53.9705C53.3514 53.7588 53.0351 53.6272 52.7013 53.5919V53.5901ZM16.9575 50.0779C30.6005 48.5676 39.487 48.7041 53.0635 50.1094C54.0755 50.215 55.0348 50.6134 55.8239 51.2559C56.613 51.8983 57.1976 52.7568 57.5063 53.7264C57.8149 54.696 57.8342 55.7345 57.5617 56.7149C57.2892 57.6953 56.7367 58.5749 55.972 59.2461C47.9658 66.2251 41.2983 70.0261 34.5223 69.9998C27.727 69.9753 21.3535 66.1096 13.9318 59.2234C13.4004 58.7284 12.9768 58.1292 12.6874 57.4632C12.398 56.7971 12.2491 56.0786 12.25 55.3524C12.2475 54.0476 12.7264 52.7878 13.595 51.8142C14.4636 50.8407 15.6609 50.2218 16.9575 50.0761V50.0779Z" fill="#908C8C"/>
<path d="M49 27.9999C49 31.713 47.525 35.2739 44.8995 37.8994C42.274 40.5249 38.713 41.9999 35 41.9999C31.287 41.9999 27.726 40.5249 25.1005 37.8994C22.475 35.2739 21 31.713 21 27.9999C21 24.2869 22.475 20.726 25.1005 18.1005C27.726 15.475 31.287 14 35 14C38.713 14 42.274 15.475 44.8995 18.1005C47.525 20.726 49 24.2869 49 27.9999Z" fill="#908C8C"/>
<path fill-rule="evenodd" clip-rule="evenodd" d="M35 38.4999C37.7848 38.4999 40.4555 37.3937 42.4246 35.4246C44.3938 33.4554 45.5 30.7847 45.5 27.9999C45.5 25.2152 44.3938 22.5445 42.4246 20.5753C40.4555 18.6062 37.7848 17.5 35 17.5C32.2152 17.5 29.5445 18.6062 27.5754 20.5753C25.6062 22.5445 24.5 25.2152 24.5 27.9999C24.5 30.7847 25.6062 33.4554 27.5754 35.4246C29.5445 37.3937 32.2152 38.4999 35 38.4999ZM35 41.9999C38.713 41.9999 42.274 40.5249 44.8995 37.8994C47.525 35.2739 49 31.713 49 27.9999C49 24.2869 47.525 20.726 44.8995 18.1005C42.274 15.475 38.713 14 35 14C31.287 14 27.726 15.475 25.1005 18.1005C22.475 20.726 21 24.2869 21 27.9999C21 31.713 22.475 35.2739 25.1005 37.8994C27.726 40.5249 31.287 41.9999 35 41.9999Z" fill="#908C8C"/>
</svg>
