<svg width="21" height="19" viewBox="0 0 21 19" fill="none" xmlns="http://www.w3.org/2000/svg">
<path d="M2.04712 8.98002V5.51131C2.04712 5.25289 2.14977 5.00506 2.3325 4.82233C2.51523 4.6396 2.76306 4.53695 3.02148 4.53695H19.0009C19.2594 4.53695 19.5072 4.6396 19.6899 4.82233C19.8726 5.00506 19.9753 5.25289 19.9753 5.51131V16.7164C19.9753 16.9748 19.8726 17.2227 19.6899 17.4054C19.5072 17.5881 19.2594 17.6908 19.0009 17.6908H3.02148C2.76306 17.6908 2.51523 17.5881 2.3325 17.4054C2.14977 17.2227 2.04712 16.9748 2.04712 16.7164V13.2428" stroke="white" stroke-width="1.25" stroke-linecap="round" stroke-linejoin="round"/>
<path d="M1.46246 8.98H7.06502C7.32343 8.98 7.57126 9.08266 7.75399 9.26539C7.93672 9.44811 8.03937 9.69595 8.03937 9.95436V12.2685C8.03937 12.5269 7.93672 12.7747 7.75399 12.9574C7.57126 13.1402 7.32343 13.2428 7.06502 13.2428H1.46246C1.33325 13.2428 1.20934 13.1915 1.11797 13.1001C1.02661 13.0088 0.975281 12.8848 0.975281 12.7556V9.46718C0.975281 9.33797 1.02661 9.21406 1.11797 9.12269C1.20934 9.03133 1.33325 8.98 1.46246 8.98Z" stroke="white" stroke-width="1.25" stroke-linecap="round" stroke-linejoin="round"/>
<path d="M5.84216 12.0882C6.38028 12.0882 6.81651 11.652 6.81651 11.1138C6.81651 10.5757 6.38028 10.1395 5.84216 10.1395C5.30403 10.1395 4.8678 10.5757 4.8678 11.1138C4.8678 11.652 5.30403 12.0882 5.84216 12.0882Z" stroke="white" stroke-width="1.25" stroke-linecap="round" stroke-linejoin="round"/>
<path d="M17.3543 4.53692L5.20892 1L4.18097 4.53692" stroke="white" stroke-width="1.25" stroke-linecap="round" stroke-linejoin="round"/>
</svg>
